<?xml version="1.0" encoding="UTF-8"?>
<svg id="Layer_1" data-name="Layer 1" xmlns="http://www.w3.org/2000/svg" width="1078.66" height="1080" viewBox="0 0 1078.66 1080">
  <path d="M182.41,669.84c226.24-.05,495.84-.79,722.06-.26,0,0-1.34,4.06-1.34,4.06-129.58-95.81-306.21-227.48-435.47-323.68,0,0-145.29-107.71-145.29-107.71,0,0,1.17-.84,1.17-.84,0,0,55.21,169.86,55.21,169.86,35.24,107.83,129.99,397.84,166.4,509.33,0,0-4.29,0-4.29,0,54.21-169.21,163.97-509.46,218.68-678.46,0,0,3.86,2.78,3.86,2.78-181.8,133.44-399.07,291.64-580.99,424.92h0ZM181.94,670c181.36-134.3,397.02-294.97,578.5-429.1,0,0,6.25-4.63,6.25-4.63,0,0-2.39,7.41-2.39,7.41,0,0-109.31,339.24-109.31,339.24,0,0-109.84,339.07-109.84,339.07,0,0-2.15,6.65-2.15,6.65l-2.14-6.65c-62.12-193.95-157.66-490.75-219.49-682.36,130.33,96.38,308.31,226.99,438.92,322.99,0,0,145.52,107.41,145.52,107.41,0,0,5.53,4.08,5.53,4.08l-6.88-.03c-226.39-.67-496.16-2.83-722.52-4.08h0Z"/>
  <path d="M967.63,540.23c1.03-157.68-91.07-308.03-232.04-378.59C452.12,19.23,125.82,224.09,125.73,540.23c1.96,313.73,327.4,520.48,609.79,378.44,141.04-70.42,233.08-220.79,232.11-378.44h0ZM968.13,540.23c1.83,168.01-102.93,331.53-258.88,395.99-184.76,80.19-407.84,10.42-516.25-158.75-65.52-99.08-86.21-225.6-57.13-340.57.71-3.41,1.75-6.73,2.68-10.08,1.68-5.92,3.94-14.26,6-19.98,0,0,3.32-9.89,3.32-9.89,1.83-5.79,5.28-13.73,7.43-19.49,62.45-156.41,221.7-266.96,390.82-265.8,233.42-2.52,424.16,197.22,422.01,428.58h0Z"/>
  <path d="M182.56,669.8c230.28-.45,491.93-2.1,721.92-1.56,0,0-2.15,6.49-2.15,6.49-36.38-26.83-109.01-80.82-145.25-107.78-134.82-100.54-300.43-224.99-434.98-324.34,0,0,1.87-1.34,1.87-1.34,50.3,155.52,115.63,353.24,166.9,509.17,0,0,55.57,169.74,55.57,169.74,0,0-6.87,0-6.87,0,36.17-112.85,128.27-400.1,163.56-508.99,0,0,54.98-169.51,54.98-169.51,0,0,6.18,4.45,6.18,4.45-184.14,135.09-397.76,289.13-581.74,423.66h0ZM181.8,670.05c182.99-135.85,394.15-294.55,577.75-430.36,0,0,9.99-7.41,9.99-7.41-29.02,90.54-83.75,260.66-113.03,351.13,0,0-110.07,338.99-110.07,338.99l-3.46,10.64s-3.41-10.64-3.41-10.64c0,0-54.53-170.08-54.53-170.08-49.85-156.62-112.96-354.59-163.38-510.31,0,0-1.15-3.57-1.15-3.57,0,0,3.02,2.23,3.02,2.23,83.9,61.98,205.99,151.68,291.55,214.11,82.46,60.49,210.31,153.8,291.52,214.16,0,0,8.86,6.54,8.86,6.54,0,0-11.01-.05-11.01-.05-230.38-.66-492.15-3.71-722.66-5.38h0Z"/>
  <path d="M540.72,1069.56C251.99,1073.68,9.57,831.58,11.39,543.12,8.25,255.47,246.29,10.04,534.9,9.78c289.75-4.82,530.89,239.02,529.92,527.56,4.21,288.41-235.11,533.23-524.1,532.23h0ZM540.72,1069.06c191.96.66,372.55-113.56,459.54-283.8C1180.11,434.21,932.08,13.43,534.91,12.51,135.54,15.73-106.21,440.55,77.95,790.41c89,169.19,270.79,281.49,462.77,278.65h0Z"/>
  <g>
    <path d="M203.49,196.2c2.33,1.96,3.9,4.64,5.87,6.95,2.85,4.03,5.54,8.36,7.09,13.03,1.02,2.75,2.13,5.5,2.04,8.46-.06,1.92-.37,3.89-.62,5.82-.34,2.13-.65,4.36-1.88,6.14-2.13,3.21-4.6,6.35-8.26,7.86-2.7,1.14-5.09,2.66-8.13,3-2.68.34-5.47-.23-8.11-.77-3.98-.93-7.95-2.08-11.6-4.05-1.28-.72-2.44-1.59-3.72-2.28-5.56-2.8-10.25-6.86-13.79-11.99-1.6-2.07-3.39-3.95-4.47-6.39-1.3-3.24-.97-7.02-1.71-10.45-.76-3.66-.57-7.72.86-11.44.7-2.04,1.88-3.75,3.24-5.4,1.25-1.65,2.75-3.08,4.37-4.32,1.34-1.12,2.98-1.85,4.62-2.45,2.18-1.02,4.42-1.64,6.65-2.31,3.25-.8,6.33.08,9.37.79,4.43,1.17,8.65,2.93,12.39,5.56,1.83,1.48,3.96,2.69,5.7,4.2.02.02.04.04.07.06ZM196.15,205.89c-1.41-1.14-3.69-2.83-5.19-3.93-2.22-1.82-4.68-3.48-7.52-4.3-3.34-1-7.27-1.37-10.76-.52-1.55.33-3.21.87-4.24,2.08-1.51,1.67-1.71,3.87-1.93,6.18-.22,6.87,3.54,14.4,7.97,18.94,3.7,4.12,8.53,6.92,13.26,9.7,5.82,2.43,16.08,5.15,19.36-2.34,1.15-2.56,1.34-5.55.34-8.23-2.41-6.84-1.89-8.97-7.27-13.72-1.33-1.29-2.67-2.57-4-3.86Z" style="stroke: #000; stroke-miterlimit: 10;"/>
    <path d="M256.38,197.77c-1.72,1.88-3.32,3.18-5.6,4.26-.56.2-1.17.27-1.77.18-2.32-.49-3.97-2.74-6.16-3.66-1.74-.95-3.59-1.66-5.42-2.39-3.6-1.15-7.13-2.14-10.72-3.86-1.53-.58-3.13-1.54-4.6-1.97-.34-.09-.77-.1-1.01.07-1,.82-.55,2.75-.03,3.92,1.2,2.78,3.97,4.4,5.86,6.65,1.97,1.88,3.36,4.32,5.28,6.23,1.35,1.54,3.24,2.65,3.92,4.57.72,3.7-5.88,7.01-7.83,9.87-1.16,1.4-3.26,4.08-3.72,1.02-.3-2.03-.02-4.35-.5-6.41-.33-1.63-1.29-3.04-2.51-4.17-1.94-1.84-3.77-3.58-5.46-5.62-3.83-4.14-7.63-8.31-11.57-12.32-2.23-2.32-4.85-4.29-6.96-6.69-3.83-4.31-8.34-8.58-13.87-10.32-3.27-1.02-3.65-2.05-1.04-4.5,2.9-2.39,5.65-6.28,9.25-7.41,2.47-.39,3.69,2.6,5.32,3.86,2.66,2.28,5.23,5.05,7.7,7.47,1.41,1.31,2.34,1.41,2.12-.74-.48-4.45-1.5-9.16-1.96-13.58-.21-2.63-1.09-5.29-.33-8.02.89-3.16,3.94-5.27,6.43-7.25,2.05-1.45,3.78-3.39,5.83-4.85,2.33-1.38,1.57,1.33.93,2.74-1.36,2.87-2.3,5.92-2.11,8.97-.02,2.09.46,4.24.65,6.38.2,3.02.44,5.71.91,8.6.41,2.33.04,5.01,1.02,7.15,1.23,2.17,4.02,2.6,6.24,3.44,2.17.62,4.13,1.59,6.12,2.58,1.42.62,2.94.91,4.39,1.43,4.55,1.51,9.09,3.75,13.48,5.38,1.96.86,3.76,2.17,5.78,2.86,1.5.48,5.84,1.48,5.78,3.03" style="stroke: #000; stroke-miterlimit: 10;"/>
    <path d="M256.8,115.75c0,3.81-.88,4.11-.97,7.16-.21,2.07.24,5.79.24,7.92-.07,3.01-.08,5.69.13,8.6.19,2.35-.41,4.96.37,7.17,1.02,2.28,3.72,3,5.83,4.07,2.08.85,3.92,2.01,5.79,3.21,1.35.76,2.81,1.21,4.2,1.88,2.82,1.21,5.43,2.82,8.1,4.28,1.61,1.03,3.25,1.55,4.69,2.48,1.85,1.06,3.51,2.54,5.43,3.44,1.43.64,2.93,1.02,4.43,1.35,2.39.54,4.44,1.41,6.69,2.23,1.46.55,3.25.89,4.51,1.87.01.01.03.02.04.03.39.27.66.64.27,1.03-.83.94-2.04,1.13-3.32,1.41-1.5.36-3.14.27-4.76.1-1.72-.15-3.34-.05-4.97.34-1.36.31-2.8.49-4.17.69-1.73.15-3.23,1.28-4.99.82-1.53-.37-2.57-1.86-3.79-2.81-1.54-1.28-3.22-2.36-4.97-3.29-3.59-2.08-7.15-2.99-10.84-5.25-2-1.03-4.03-2.51-6.03-3.34-.86-.22-1.26.19-1.46,1.16-.58,4.11,3.35,6.92,5.47,9.93,1.33,1.64,2.46,3.48,3.56,5.28,1.24,1.81,2.79,3.33,4.02,5.08,1.77,2.61-1.08,4.8-2.95,6.18-1.78,1.43-3.78,2.54-5.37,4.25-1.33,1.32-3.3,3.2-3.49.34-.12-2.03.36-4.29.07-6.38-.18-1.65-1-3.14-2.1-4.39-1.74-2.03-3.39-3.95-4.87-6.14-3.4-4.5-6.77-9.03-10.29-13.41-1.79-2.26-3.91-4.33-5.68-6.58-1.46-1.99-2.76-3.94-4.13-5.92-.87-1.16-1.84-2.25-2.86-3.29-1.56-1.65-3.71-2.78-6-3.2-1.15-.23-2.52-.49-2.92-1.51-.63-1.95,3.88-4.29,5.27-5.63,2.09-1.53,4.22-5.02,6.78-4.5,1.55.55,2.87,3.11,3.89,4.28,1.02,1.33,2.28,2.51,3.35,3.82.91.79,5.9,7.35,6.81,6.13.13-.14.26-1.24.26-1.46.11-2.53-.61-4.2-1.1-7.02-.53-3.09-.13-5.78-.41-9.36-.46-5.9,1.6-6.93,6.08-9.84,1.52-1,3.36-3.89,5.12-4.11" style="stroke: #000; stroke-miterlimit: 10;"/>
    <path d="M302.85,87.34c2.21.49,2.15,3.16,3.08,4.89,1.47,2.5,2.78,4.95,3.51,7.75.58,2.07,1.51,4.13,2.63,5.84,1.79,2.84,3.43,6.14,5.02,9.17,1.19,1.98,2.34,3.73,3.31,5.77.83,1.9,1.43,3.95,2.49,5.76,1.73,3.32,3.4,6.77,3.89,10.54.71,4.28.13,8.59-1.52,12.36-1.56,2.45-3.94,4.52-6.06,6.47-2.43,2-5.45,3.04-8.51,3.75-3.22.93-6.56,1.24-9.91.18-2.72-.85-4.72-3-7.15-4.5-5.22-2.95-7.78-8.62-10.51-13.66-3.54-4.79-7.02-10.08-10.46-15.01-2.19-3.09-3.89-6.89-7.27-9.02-1.48-.92-3.24-1.45-4.96-1.89-1.45-.37-3.1-.16-4.35-.78-.94-.8,3.15-3.11,3.83-3.63,3.08-2.06,6.45-4.21,9.83-5.64,1.73-.92,3.73-2.26,4.9-.36,2.11,4.33,5.22,8.3,7.36,12.65.83,2,2.13,3.65,3.33,5.42,2.5,4.71,5.4,9.11,8.1,13.67,2.29,3.63,4.01,8.07,7.31,11.03,2.06,2.17,4.75,3.55,7.65,2.64,2.09-.58,4.52-1.27,5.85-3.12,2.25-3.64,1.67-8.64.42-12.71-.97-3.15-3.33-5.43-4.77-8.33-3.23-7.28-7.65-13.75-12.07-20.34-2.68-4.2-4.4-7.03-9.67-8.41-1.18-.32-3.48-.54-3.99-.92-1.14-.99,5.5-4.09,6.41-4.86,2.42-1.41,5.03-2.58,7.66-3.55,1.39-.69,3.04-1.34,4.55-1.18.02,0,.04,0,.06.01Z" style="stroke: #000; stroke-miterlimit: 10;"/>
    <path d="M366.52,110.6c.71-.06.97,1.98,1.14,3.18.25,2.58.75,5.24.71,7.8-.01,1.57-.09,3.13.03,4.7.34,4.39-2.65,4.47-5.84,5.36-2.65,1.05-4.83,2.13-7.39,3.2-.94.5-1.94.89-2.85,1.43-1.32.76-2.53,1.58-3.93,2.08-1,.37-2.18.59-3.2,1.05-2.43,1.19-4.88,2.49-7.36,3.57-2.34,1.03-1.42-1.03-1.27-2.4.51-3.44.77-7.24-1.14-10.43-.91-1.5-1.92-2.81-2.65-4.38-.73-1.55-1.04-3.3-1.82-4.82-.99-2.07-2.65-3.8-3.57-5.93-1.44-3.84-3.45-7.24-5.24-10.94-1.07-1.88-2.5-3.77-3.48-5.76-1.38-2.55-1.94-5.71-3.93-7.96-1.16-1.3-2.78-2.1-4.38-2.78-1.01-.44-2.25-.74-3.06-1.43-.93-.76.51-1.6,1.17-2.02,1.7-1.06,3.56-1.99,5.25-2.95,3.48-1.65,7.46-5.04,9.68-.06,1.22,2.72,2.39,5.49,4.02,8,.43.7.77,1.3,1.14,2.01,1.1,2.01,1.98,4.2,2.95,6.3,1.05,2.35,2.25,4.59,3.4,6.88.95,1.85,1.7,3.92,2.59,5.78,1.1,2.27,2.3,4.44,3.26,6.78,1.39,2.98,3.27,9.6,6.26,10.88,2.05.45,3.86-1.66,5.7-2.27,1.86-.76,3.8-.9,5.51-2.04,2.48-2.01,4.76-4.4,5.87-7.43.51-1.34.92-2.83,1.42-4.14.29-.72.66-1.2.97-1.25.01,0,.02,0,.03,0Z" style="stroke: #000; stroke-miterlimit: 10;"/>
    <path d="M383.9,134.06c-1.83-2.19-7.79-10.34-7.8-10.33-1.57-2.97-3.56-7.05-5.52-12.12-1.31-2.64-1.83-5.62-2.77-8.39-.64-1.68-1.14-3.39-1.73-5.1-.86-2.17-2.09-4.17-3.05-6.3-.56-1.37-.98-2.77-1.34-4.19-.84-3.51-2.44-6.56-3.94-9.82-2.07-5.21-3.87-3.57-8.33-1.73-1.44.54-2.92,1-4.33,1.62-2.08.86-3.98,2.49-5.53,4.11-.68.71-1.47,1.73-2.25,2.2-1.68.96-1.62-2.13-1.7-3.12-.16-2.67,0-5.58.63-8.17.53-2.15,3-2.93,5-3.47,1.62-.47,2.98-1.27,4.65-1.92,1.75-.77,3.5-1.58,5.27-2.31,1.69-.73,3.54-1.1,5.22-1.74,1.99-.64,3.62-1.84,5.5-2.76,1.28-.55,2.62-.98,3.99-1.43,2.29-.71,4.62-1.35,6.83-2.14,2.26-.82,4.83-1.72,6.78-.1,1.86,1.39,3.79,3.22,5.2,5.1.74.9,1.83,2.03,1.97,3.13,0,.01,0,.03,0,.04-.04,1.48-4.72.15-5.88.36-3.41-.07-6.9.97-10.14,2.07-1.45.52-3.16,1.43-3.51,2.94-.22,2.18,1.56,3.73,2.27,5.87.99,2.56,1.29,5.1,2.48,7.65,1.11,2.63,2.33,5.31,3.44,7.86.88,2.17.83,4.65,1.73,6.78.87,1.88,1.84,3.46,2.54,5.58,1.16,2.82,2.1,5.9,3.34,8.75.63,1.91,1.16,3.49,1.69,5.38.3.98.96,3.15,1.08,4.14.71,5.67,1.06,7.91.98,10.48-.02,0,.1,1.05-.91,1.59-.89.47-1.85-.49-1.87-.51Z" style="stroke: #000; stroke-miterlimit: 10;"/>
    <path d="M412.49,99.84c.92,2.33,1.26,4.73,2.09,7.12.44,1.85,1.43,4.04.8,5.83-.48,1.15-1.71.98-2.71,1.07-.9.22-2.61.71-3.8,1.06-1.41.33-6.84,2.86-7.75,1.44-.5-1.08.16-2.55.5-3.6.62-1.68.88-3.21.73-4.99-.44-2.68-1.53-5.24-2.37-7.83-1.02-3.23-2.01-6.51-3.09-9.69-.91-3.03-1.3-5.89-2.48-8.77-1.32-3.58-2.52-7.71-3.3-11.44-.47-2.32-1.62-4.42-2.39-6.64-.89-2.11-1.4-4.52-3.37-5.96-2.29-1.76-6.42-2.21-.85-3.94,1.49-.5,3.02-.94,4.51-1.45,2.41-.71,5.91-2.47,8.25-1.55,1,.62,1.19,1.94,1.52,2.98.51,1.76,1.16,3.59,1.52,5.41.69,3.27,2.07,6.1,3.1,9.27.52,1.68.97,3.32,1.48,4.99.58,2.12.68,4.1,1.33,6.08.37,1.4,1.23,2.99,1.65,4.54,1.24,5.34,2.65,10.88,4.62,15.99,0,.03.02.05.03.08Z" style="stroke: #000; stroke-miterlimit: 10;"/>
    <path d="M447.96,38.51c.96.95-2.16,3.79-2.53,5.16-1.2,2.82-.95,5.86-1.54,8.91-.55,3.84-.03,7.57-.33,11.46.08,7.71.05,15.48-.49,23.15.07,3.13,1.01,6.14.47,9.25-.17,1.89.05,3.86.15,5.77.08,1.18.14,2.48-.36,3.46-1.53,2.7-4.98,2.51-7.45,3.62-1.46.52-2.85.96-4.35,1.26-.8.19-2.02.21-2.68-.11-.1-.07-.15-.16-.14-.29.03-.61,1.3-2.53,1.42-3.73.18-1.12.09-2.27-.14-3.38-.38-1.83-1.28-3.42-1.96-5.21-.7-1.76-1.2-3.63-1.96-5.36-1.8-4.18-5.12-8.02-6.8-12.29-.97-2.64-2.7-4.73-3.94-7.22-1.36-4.03-3.6-7.69-5.69-11.41-2.07-3.14-4.52-5.97-7.45-8.41-1.26-1.08-3.4-1.42-4.26-2.58-.21-.67.76-.87,2.02-1.48,3.22-1.43,6.41-1.94,9.86-2.71,5.19-1.59,5.6,2.67,7.86,5.83,1.57,2.21,2.49,4.73,3.66,7.24.56,1.07,1.15,2.05,1.64,3.17,1.23,2.57,2.02,4.92,3.44,7.49,1.22,2.57,2.81,5,4.11,7.52.74,1.48,2.1,5.25,2.36,1.53.12-3.28-.15-6.71-.1-9.98-.2-3.97.26-8.01.12-12-.04-3.71-.55-7.19-.3-10.91.1-1.46.06-3.31.98-4.46,1.62-1.76,4.77-1.68,7.04-2.37,1.23-.31,2.45-.58,3.69-.82,1.56-.25,2.84-.58,3.64-.11.01,0,.02.02.03.03Z" style="stroke: #000; stroke-miterlimit: 10;"/>
    <path d="M539,85.67c-.11-1.84.23-3.81.18-5.68,0-1.52-.19-2.99-.14-4.46.53-5.5.7-11.03.86-16.59.08-2.58.22-5.1.11-7.7-.26-3.28,0-6.55-.42-9.8-.35-2.43-1.62-4.69-3.68-6.12-1.74-1.35-9.83-4.48-2.96-4.69,3.34.08,6.61.4,9.93-.04,3.08-.28,6.27.23,9.37.13,2.51-.04,4.91.43,7.32.84,2.9.2,6.08-.06,9-.31,3.22-.53,6.28-1.21,9.44-1.51,7.11-.64,5.97-.66,2.6,4.4-.02.03-.03.05-.05.08-.92,1.43-1.86,2.89-2.93,4.31-1.69,2.46-3.45,4.07-6.39,3.86-3.2-.27-6.16-1.09-9.45-1.37-1.93-.21-3.89-.24-5.81-.35-5.18-.48-4.22,2.82-4.42,6.34-.15,3.17-2.1,9.66,1.46,11.3,1.11.44,2.46.47,3.67.44,1.95-.06,4.04.09,5.91-.46,2.13-.46,3.15-.56,4.97-1.61,3.05-1.23.18,3.69.06,4.65-.54,1.41-.83,2.91-1.49,4.26-1.81,3.66-7,1.99-10.2,2.16-.7-.04-1.36-.1-2.04-.08-4.11-.08-3.66,5.23-3.61,8.21.23,3.08-.22,6.35-.01,9.43.08,2.17,1.52,3.64,3.55,3.67,2.45.19,5.41.14,8.06.18,4.89.23,9.14-3.15,12.26-6.97,1.53-1.78,2.66-2.01,2.17.82-.31,1.39-.94,2.77-1.55,4.06-1.31,2.64-2.35,5.44-3.51,8.18-.71,1.78-1.94,3.53-3.75,3.8-2.46.35-4.97-.35-7.43-.38-5.34-.34-10.69-.98-16.04-.42-3.04.36-2.43-.2-5.62.09-1.08.1-2.35.11-3.35-.14-.18-.07-.31-.08-.41-.25-.07-.14.03-.29.27-.48.5-.41,2.45-3.48,2.79-4.12" style="stroke: #000; stroke-miterlimit: 10;"/>
    <path d="M854.4,240.7c-2.21,4.73-4.09-9.28-4.57-10.41-.42-1.75-.74-3.52-1.24-5.26-.5-2.6-1.99-4.84-1.84-7.44.78-4.43,3.04-8.48,4.83-12.73.99-2.2,1.45-4.32,2.06-6.61.62-1.83,1.5-3.48,1.94-5.18.82-2.91-2.03-6.2-5.02-6.04-2.12.25-3.34,2.28-4.94,4.14-1.21,1.52-2.49,3-3.83,4.39-2.24,2.38-5.5,6.59-7.53,9.12-1.44,2.07-2.54,3.54-4.8,1.6-2.75-2.11-5.24-4.46-7.86-6.66-.69-.62-2.4-4.45-.79-5.13.69-.21,1.33,1.21,2.74,1.24,4.75.39,7.75-5.44,10.37-8.67,1.28-1.53,2.64-2.79,3.95-4.21,2.33-2.65,4.16-5.61,6.48-8.29,3.39-4.03,6.85-8.09,9.87-12.44.87-1.1,1.72-2.29,2.56-3.39,1.36-1.84,3.03-3.48,3.92-5.55.56-1.51.45-3.22.2-4.9-.26-2.22-1.84-6.12,2.1-3.52,2.36,1.38,4.47,3.16,6.4,5.13,2.37,2.38,5.15,4.28,7.67,6.43,2.53,2.33,4.61,4.69,7.27,6.93.83.69,1.64,1.44,2.34,2.26,2.66,2.86,3.3,6.54,3.89,10.07,1.18,6.1-1.07,12.34-5.67,15.89-1.53,1.11-3.27,1.91-4.95,2.77-2.63,1.44-5.21,2.99-8.36,2.8-.66-.02-1.32-.09-2-.2-4.66-1-5.89,1.11-6.68,5.12-.68,2.93-1.29,5.82-2.12,8.63-1.27,3.35-2.33,6.67-2.92,10.18-.61,3.4-.93,6.84-1.97,10.13-.63,2.95-.24,6.85-1.48,9.74,0,.02-.02.04-.03.07ZM872.94,185.71c6.03-3.06,10.31-10.42,3.91-16.5-1.41-1.37-2.81-2.71-4.32-3.98-1.73-1.44-3.33-2.1-4.71-.41-2.98,3.77-6.38,7.49-9.31,11.34-.52.63-.96,1.4-1,2.16-.04,1.81,1.92,3.1,3.19,4.24,1.49,1.19,2.53,2.22,3.88,2.96,2.58,1.39,5.72,1.43,8.28.22.03-.01.05-.03.08-.04Z" style="stroke: #000; stroke-miterlimit: 10;"/>
    <path d="M631.09,49.08c-.74,1.29-4.22-2.08-5.33-2.44-2.96-1.67-6.52-2.39-9.87-2.94-1.51-.23-3.45-.22-4.46.94-1.22,1.82-.4,4.02-.78,6.24-.34,2.72-1.28,5.1-1.44,7.91-.27,2.84-.47,5.77-.7,8.55-.25,2.32-1.47,4.49-1.68,6.79-.12,2.07-.03,3.92-.41,6.11-.31,3.03-.95,6.19-1.21,9.28-.36,1.98-.63,3.62-1.06,5.53-.2,1-.23,2.22-.61,3.14-1.27,3.26-4.77,3.17-7.1,5.21-2.37,1.75-4.36,4.03-6.25,6.32-.38.46-.87.96-1.29,1.26-.5.36-.85.46-.96.22-.2-.83.86-2.51,1.24-3.45.68-1.39,1.23-2.85,1.82-4.22,1.16-2.68,2.66-4.9,3.17-7.75.58-4.29,1.2-8.96.89-13.29.1-2.94,1.05-5.81,1.54-8.7.23-1.78.61-3.53.89-5.31.27-2.31.15-4.66.31-6.99.15-1.47.45-2.9.8-4.32.92-3.49.96-6.93,1.19-10.51.65-5.57-1.69-4.97-6.45-5.45-1.51-.2-3.02-.49-4.53-.61-2.21-.23-4.63.32-6.75,1.02-.93.3-2.09.84-2.99.88-1.91.06-.41-2.63-.01-3.56,1.12-2.42,2.62-4.92,4.38-6.9,1.48-1.64,3.99-1.17,5.98-.7,1.63.35,3.19.29,4.96.5,1.89.15,3.79.26,5.68.45,1.82.15,3.61.7,5.38.92,2.05.37,4.03.08,6.11.16,1.38.12,2.75.37,4.17.61,2.34.45,4.68.98,6.99,1.33,2.37.34,5.05.75,6,3.1.98,2.11,1.81,4.63,2.16,6.94.22,1.14.64,2.65.25,3.69,0,.01-.01.02-.02.03Z" style="stroke: #000; stroke-miterlimit: 10;"/>
    <path d="M764.59,81.94c1.34,1.96-4.61,1.98-5.79,2.91-2.7,1.11-3.38,3.93-4.43,6.32-1.33,2.51-2.95,4.71-4.04,7.49-.48,1.17-1.09,2.29-1.7,3.39-2.02,3.48-2.95,7.9-4.8,11.42-.98,1.72-2.05,3.43-3.29,4.97-1.33,1.69-2.06,3.74-2.57,5.79-.62,2.02-1.35,4.04-2.07,6.09-.36,1.1-.54,2.46-1.12,3.28-.58.87-1.33,1.47-2.03,2.27-.91.85-1.68,2.24-2.83,2.64-1.2.34-2.38-.41-3.4-.9-.73-.35-1.54-.21-2.36-1-2.85-2.32-.49-6.5-1.09-9.55-.17-.74-.37-1.42-.43-2.19-.3-5.44-.84-11.37-1.27-16.86-.14-3.6-.33-6.64-.62-10.26-.07-1.1.13-2.39-.56-3.28-.96-.73-1.6,2.44-1.75,3.17-.7,3.11-2.43,5.96-3.05,9.09-.67,3.53-3.06,6.34-4.16,9.72-.84,2.65-2.14,5.02-2.88,7.73-.43,1.6-.92,3.28-1.9,4.61-.79,1.18-2.01,1.87-3.18,2.56-1.44.88-2.95,1.59-4.38,2.45-2.8,2.02-5.73,3.55-8.48,5.78-4.73,3.56-1.44-.88-.45-3.31,1.11-2.51,2.48-4.82,3.64-7.28.6-1.4,1.07-2.74,1.7-4.08,1.65-3.39,3.4-6.75,5.18-10.07,1.32-2.73,2.22-5.75,3.51-8.41.9-2.91,1.9-5.97,3.04-8.87,1.05-2.66,1.99-5.38,2.44-8.19.56-2.47,2.09-4.67,2.98-7.07,1.11-2.71,1.99-5.42,2.84-8.24.5-1.55.73-3.18.39-4.82-.09-2.24-2.15-5.18-2.57-6.99.07-1.67,4.21.35,5.37.69,1.5.53,2.97,1.09,4.49,1.65,2.5.86,5.71,1.65,6.54,4.3.92,2.95.64,5.59.61,8.7.12,2.6.61,5.14,1.09,7.68.33,2.98.32,6.11.29,9.06-.12,2.13-.37,3.93.24,5.93.29,1.07.61,2.22.66,3.48.05.87-.04,1.86.13,2.68,1,3.17,3.15-4.28,3.52-5.16,2.08-5.37,4.22-10.65,6.5-15.95.56-1.33,1.06-2.62,1.67-3.84.69-1.38,1.47-2.76,1.86-4.25,1.16-4.56,6.77-.48,9.65.71,2.47,1.45,6.95,2.22,8.81,3.95.01.01.02.03.03.04Z" style="stroke: #000; stroke-miterlimit: 10;"/>
    <path d="M755.64,137.15c-.96,2.32-2.38,4.27-3.45,6.57-.97,1.63.15,4.36-1.57,5.2-1.16.48-3.86-.95-4.66-1.59-.82-.47-2.41-1.32-3.53-1.9-1.26-.74-5.73-2.1-5.4-3.75.39-1.12,1.91-1.72,2.89-2.22,1.63-.77,1.6-2.33,2.73-3.71,1.55-2.23,2.54-4.84,3.74-7.28,1.51-3.03,3.07-6.08,4.51-9.12,1.45-2.81,3.17-5.13,4.31-8.03,1.54-3.5,3.55-7.3,5.58-10.52,1.28-2,1.9-4.3,2.89-6.44q.83-2.14,2.21-5.24c1.16-2.6-2.18-6.74,3.08-4.09,1.43.69,1.41.7,2.86,1.38,2.26,1.18,6.06,2.37,7.13,4.67.3,1.14-.48,2.22-.96,3.2-.86,1.62-1.66,3.39-2.67,4.95-1.78,2.83-2.75,5.83-4.21,8.83-.79,1.56-1.61,3.05-2.41,4.61-1.06,1.93-2.37,3.42-3.28,5.29-.71,1.26-1.19,3.01-1.97,4.41-2.83,4.7-5.67,9.66-7.8,14.71-.01.02-.02.05-.03.07Z" style="stroke: #000; stroke-miterlimit: 10;"/>
    <path d="M767.29,156.09q.26-1.83,1.08-5.09c1.24-4.96,1.67-7,2.6-9.49.85-2.26,1.34-4.72,1.81-7.21.57-3.69,2.24-6.88,3.02-10.44.3-1.31.49-2.6.93-3.91.43-1.14,1.04-2.22,1.42-3.43,1.44-4.86,3.03-9.82,3.01-15,.04-1.8.08-3.66-.31-5.49-.24-1.11-.8-2.29-1.08-3.15-.19-.65-.31-1.05-.03-1.38.29-.3,1.18.05,2.41.52,1.54.57,2.97,1.28,4.37,2.08,1.66.85,3.06,1.94,4.78,2.92,1.17.66,2.39,1.52,2.81,2.8.53,1.97-.6,4-.9,5.96-.46,3.52-2.02,6.71-2.97,10.15-.92,3.42-2.41,6.31-3.34,9.79-1.09,3.47-1.88,7.46-3.06,10.83-1.15,4.23,6.87-5.75,7.6-6.12,2.78-3.14,6.04-5.87,8.93-8.93,2.74-2.79,4.9-5.81,7.83-8.43,1.1-.97,2.37-2.33,3.86-2.49,2.33-.12,4.55,2.06,6.62,3.16,1.22.71,2.42,1.44,3.6,2.22,1.33.94,2.53,1.62,2.79,2.52,0,.01,0,.03,0,.04.04,1.36-4.27,1.16-5.51,1.87-2.87,1.15-4.83,3.5-7.4,5.26-3.11,2.35-5.34,5.39-8.3,7.94-5.36,5.57-10.41,11.37-16.21,16.46-2.15,2.28-4.1,4.14-6.3,6.24-2.32,2.22-2.38,2.07-4.88,4.64,0,0-1.28,1.32-3.34,3.07-.28.24-.99,1.05-2.19,1.55-1.43.61-2.74,1-3.29.75-.15-.07-.59-.2-.93-2.5-.19-1.31.08-3.06.11-4.35.05-1.94.29-2.36.43-3.39Z" style="stroke: #000; stroke-miterlimit: 10;"/>
    <path d="M861.5,146.75c-1.59.63-1.94,2.33-3.67,2.86-2.85,1.01-5.28,1.28-7.69-.67-2.6-2.15-4.69-4.6-7.37-6.81-1.54-1.33-3.21-2.52-4.81-3.76-4.19-3.48-5.23-.18-7.39,2.6-1.92,2.53-7.27,6.72-5.14,10.2.71,1.03,1.85,1.86,2.9,2.55,1.71,1.11,3.43,2.49,5.35,3.16,2.09.9,2.19.77,4.35,1,3.33.81-1.51,3.49-2.16,4.2-1.26.84-2.36,1.91-3.69,2.63-3.63,1.94-6.75-2.24-9.6-4-.59-.45-1.12-.89-1.71-1.28-3.49-2.52-6.11,2.14-7.75,4.63-1.55,2.68-3.78,5.11-5.35,7.77-1.16,1.84-.75,3.91.97,5.15,2,1.62,4.57,3.35,6.84,4.96,4.08,3.12,9.65,2.9,14.51,1.63,2.33-.55,3.43-.05,1.41,1.99-1.05.96-2.38,1.72-3.63,2.42-2.62,1.38-5.1,3.08-7.65,4.63-1.61,1.04-3.67,1.75-5.38.87-2.32-1.19-4.09-3.28-6.19-4.78-4.4-3.48-8.65-7.2-13.56-9.91-2.81-1.51-4.74-3.53-7.65-5.15-.98-.55-2.09-1.28-2.81-2.07-.12-.16-.22-.25-.22-.44.02-.15.19-.22.51-.24.67-.05,1.47.09,2.18.18,2.38.36,5.05.47,7.2-.88,1.75-1.09,2.58-3.09,3.64-4.78.95-1.58,2.35-3.01,3.37-4.58.86-1.25,1.53-2.57,2.41-3.76,3.56-4.22,6.84-8.69,10.12-13.18,1.52-2.08,3.07-4.08,4.45-6.29,1.63-2.87,3.71-5.4,5.19-8.33,1.08-2.2,1.27-4.83.31-7.22-.73-2.14-5.88-9.48.12-5.61,2.81,2.03,5.43,4.22,8.53,5.83,2.81,1.59,5.25,3.9,7.97,5.66,2.18,1.46,3.98,3.28,5.82,5.06,2.39,1.9,4.52,3.65,7.17,5.19,3.07,1.51,1.99.6,8.46,5.97" style="stroke: #000; stroke-miterlimit: 10;"/>
    <path d="M544.48,98.24c-4.25.62-5.83.63-6.94.7-2.39.17-5.47-.1-6.95-.96-2.07-1.48-2.27-1.36-3.91-3.32-2.41-3.68-3.61-8.14-5.24-12.42-.8-2.26-1.91-4.08-3.03-6.14-.81-1.73-1.32-3.52-2.16-5.04-1.39-2.64-5.48-2.97-7.36-.75-1.25,1.67-.71,3.97-.53,6.41.21,1.93.35,3.88.38,5.81.1,3.26.61,6.52.95,9.75.43,2.46.66,4.32-2.15,4.51-3.25.43-6.56,0-9.81.28-.89.05-4.43.54-3.8-1.08.32-.63,1.56-1.59,2.54-2.56,3.45-3.02,1.73-7.32,1.32-11.42-.17-1.98-.1-3.84-.18-5.77-.22-3.52-.97-6.91-1.22-10.45-.45-5.02-.76-10.13-1.65-15.12-.2-1.61-.44-3.27-.65-4.87-.33-2.26-.3-4.61-1.1-6.7-.63-1.47-1.86-2.6-3.16-3.63-1.67-1.4-5.35-3.07-.95-3.98,2.51-.67,5.13-.88,7.73-.83,3.18.04,6.31-.57,9.43-.82,3.24-.13,6.2.08,9.45-.21,1.01-.1,2.04-.13,3.05-.05,3.66.15,6.52,2.29,9.24,4.37,4.82,3.48,7.44,9.47,6.76,15.23-.28,1.87-.89,3.67-1.43,5.46-.78,2.88-1.45,5.8-3.66,7.9-.45.45-.93.86-1.45,1.27-3.74,2.59-3.15,4.95-1.02,8.34,1.49,2.55,3,5.03,4.31,7.6,1.38,3.26,2.87,6.36,4.79,9.25,1.83,2.83,3.41,3.91,6.22,5.52,3.52,2.03,4.12,1.6,3.7,2.97-.51.24-1.02.49-1.53.74ZM522.84,53.59c1.96-6.43-.08-14.65-8.36-14.44-1.85.02-3.67.06-5.52.22-2.11.19-3.62.85-3.41,3.02.53,4.78.75,9.8,1.37,14.6.08.81.29,1.66.78,2.24,1.19,1.31,3.35.84,4.95.77,1.78-.21,3.16-.21,4.54-.64,2.64-.83,4.74-3.02,5.63-5.69,0-.03.02-.06.03-.08Z" style="stroke: #000; stroke-miterlimit: 10;"/>
    <path d="M897.88,242.76c-2.31,2.48-5.43,4.01-8.73,4.9-2.66.97-5.45,1.4-8.09,1.24-2.78.03-5.71.12-8.08-1.53-1.14-.72-2.26-1.47-3.36-2.25-1.95-1.21-3.74-2.25-5.35-3.98-2.85-3.3-5.2-7.62-4.99-12.14.09-2.74.26-5.42.72-8.21.29-1.74.58-3.6,1.56-4.63,1.43-1.57,3.79-.79,5.68-.57,2.75.51,6.05-.57,8.79.42,2.87,1.25-.92,3-2.13,3.97-1.16,1.08-2.37,2.18-3.3,3.48-1.81,2.98-1.1,7.05.94,9.71,1.75,1.76,3.43,3.86,5.84,4.72,4.36,1.18,12.57-1.72,14.54-6.01,1.67-3.07.24-6.6-1.04-9.68-1.5-3.64-2.87-7.71-4.69-11.29-3.27-6.42-1.24-14.38,3.91-18.66,2.91-2.67,7-3.93,11.15-3.79,3.26.1,6.5,1.63,9.43,3.21,2.58,1.34,5.01,3.02,6.93,5.32,1.61,1.8,3.39,3.39,3.99,5.67.53,3.02,1.5,6.06,1.95,9.07.2,2.69.06,5.47-1.11,7.71-1.38,1.82-3.92,1.29-6.46,1.52-1.21-.08-10.71,1.39-8.84-1.56.92-1.19,2.45-2.24,3.27-3.62,1.34-2.49,2.99-5.22,2.17-8.34-.72-2.46-1.97-4.95-4.02-6.56-6.14-4.18-13.5-.37-12.98,6.73.23,2.91,1.94,5.56,3.1,8.25,1.68,3.79,3.14,7.41,4.22,11.2,1.38,5.36-1.23,12.09-4.91,15.65-.02.02-.04.04-.06.06Z" style="stroke: #000; stroke-miterlimit: 10;"/>
    <path d="M714.52,61.27c-3.37-1.3-6.89-3.1-10.44-3.73-1.85-.51-4.21-.87-4.94,1.24-1.1,4.6-3.2,9.07-4.36,13.69-.04.17-.08.34-.11.52-.37,1.87-1.13,3.56-1.84,5.31-.12.3-.22.6-.31.91-1.26,4.41-2.93,8.67-4.21,13.06-1.04,3.57-2.26,9.25-4.72,13.34-1.79,2.98-4.92,4.87-8.2,4.83-.02,0-.04,0-.06,0-2.23-.04-4.34-1-6.15-2.12-2.59-1.49-3.37-4.38-3.16-7.37-.04-4.42,2.04-8.7,3.14-12.85,1.46-4.93,2.7-9.88,4.36-14.77.1-.31.2-.62.27-.94.41-1.84.75-3.67,1.5-5.41.07-.16.14-.32.2-.49,1.67-4.47,2.48-9.34,4.18-13.75.6-2.14-1.55-3.18-3.36-3.81-3.27-1.48-7.17-1.98-10.67-2.81-.82-.14-5.17-1.54-5.12-.3.38,1.34,1.6,2.39,2.29,3.7.8,1.55,1.58,3.2,1.89,4.9.69,3.91-.93,7.75-1.72,11.45-1.24,5.66-2.7,11.56-3.81,17.21-.09.44-.2.86-.34,1.29-1.81,5.24-3.97,10.75-2.72,16.34.52,2.79.29,5.71,1.46,8.28,1.45,3.16,3.88,5.37,6.68,7.08,2.44,1.68,5.09,3.12,8.02,3.58.23.04.45.06.68.07,2.31.17,4.77.4,7.12.15.84-.09,1.67-.31,2.47-.65,3.37-1.44,6.45-3.79,8.81-6.87.77-.93,1.43-1.93,2.02-2.97.12-.21.25-.42.39-.63,1.72-2.56,2.75-5.55,3.62-8.56.16-.56.37-1.11.63-1.64.32-.66.64-1.31.93-1.98.7-1.78,1.17-3.51,1.69-5.34.1-.34.21-.67.35-1,1.52-3.73,2.99-7.54,4.49-11.2,1.46-3.49,2.3-7.57,5.1-10.4,1.23-1.23,2.81-2.14,4.36-2.96,1.32-.69,2.93-.86,4.01-1.74.74-.99-3.66-2.3-4.42-2.65Z" style="stroke: #000; stroke-miterlimit: 10;"/>
    <path d="M488.92,33.92c-.43,2.71-1.23,3.08-2.04,4.67-1.23,2.72-2.51,2.88-5.46,3.2-3.21.31-4.53.66-7.83.95-1.95.12-3.39,1.02-5.31,1.25-5.21.42-3.68,3.51-3.27,7.01.41,3.15-.39,9.88,3.41,10.88,1.18.24,2.51.04,3.7-.2,1.92-.4,3.01-.48,4.76-1.35,2.02-.82,3.33-2.67,4.96-4.02,2.8-1.74-.01,5.23.04,6.2-.29,1.48-.3,3.01-.71,4.46-1.13,3.93-5.09,3-8.22,3.72-.7.09-1.36.14-2.03.27-4.08.63-2.71,5.79-2.14,8.71.76,3,.89,6.29,1.63,9.29.46,2.13,2.14,3.32,4.15,3.01,2.46-.23,5.37-.79,8-1.22,4.89-.61,7.75-2.55,10.14-6.86,1.19-2.02,2.26-2.44,2.28.43-.06,1.42-.44,2.89-.81,4.27-.83,2.82-.61,3.65-1.29,6.55-.39,1.87-1.3,3.82-3.05,4.38-2.37.77-4.97.51-7.41.91-5.34.58-10.75.88-15.94,2.36-2.95.88-4.27.53-7.38,1.38-1.05.29-2.3.53-3.34.46-.19-.03-.32-.03-.45-.17-.09-.12-.02-.29.18-.53.43-.5,1.08-.95,1.63-1.38,1.89-1.39,2.41-2.92,2.96-5.38.46-2-.33-4.01-.76-5.96-.42-1.79-.44-3.79-.81-5.62-.27-1.5-.71-2.91-.91-4.37-.43-5.5-1.23-10.99-2.03-16.48-.37-2.55-.67-5.06-1.23-7.6-.83-3.19-1.14-6.45-2.12-9.58-.76-2.33-2.42-4.34-4.71-5.39-1.96-1.03-10.51-2.71-3.74-4.1,3.32-.5,6.61-.75,9.82-1.76,3-.82,6.24-.86,9.29-1.49,2.47-.48,4.93-.42,7.39-.44,2.9-.31,6-1.11,8.84-1.86,3.08-1.08,6.56-1.4,9.1-.01" style="stroke: #000; stroke-miterlimit: 10;"/>
    <g>
      <path d="M874,887.93c-2.33-1.96-3.9-4.64-5.87-6.95-2.85-4.03-5.54-8.36-7.09-13.03-1.02-2.75-2.13-5.5-2.04-8.46.06-1.92.37-3.89.62-5.82.34-2.13.65-4.36,1.88-6.14,2.13-3.21,4.6-6.35,8.26-7.86,2.7-1.14,5.09-2.66,8.13-3,2.68-.34,5.47.23,8.11.77,3.98.93,7.95,2.08,11.6,4.05,1.28.72,2.44,1.59,3.72,2.28,5.56,2.8,10.25,6.86,13.79,11.99,1.6,2.07,3.39,3.95,4.47,6.39,1.3,3.24.97,7.02,1.71,10.45.76,3.66.57,7.72-.86,11.44-.7,2.04-1.88,3.75-3.24,5.4-1.25,1.65-2.75,3.08-4.37,4.32-1.34,1.12-2.98,1.85-4.62,2.45-2.18,1.02-4.42,1.64-6.65,2.31-3.25.8-6.33-.08-9.37-.79-4.43-1.17-8.65-2.93-12.39-5.56-1.83-1.48-3.96-2.69-5.7-4.2-.02-.02-.04-.04-.07-.06ZM881.34,878.24c1.41,1.14,3.69,2.83,5.19,3.93,2.22,1.82,4.68,3.48,7.52,4.3,3.34,1,7.27,1.37,10.76.52,1.55-.33,3.21-.87,4.24-2.08,1.51-1.67,1.71-3.87,1.93-6.18.22-6.87-3.54-14.4-7.97-18.94-3.7-4.12-8.53-6.92-13.26-9.7-5.82-2.43-16.08-5.15-19.36,2.34-1.15,2.56-1.34,5.55-.34,8.23,2.41,6.84,1.89,8.97,7.27,13.72,1.33,1.29,2.67,2.57,4,3.86Z" style="stroke: #000; stroke-miterlimit: 10;"/>
      <path d="M821.11,886.36c1.72-1.88,3.32-3.18,5.6-4.26.56-.2,1.17-.27,1.77-.18,2.32.49,3.97,2.74,6.16,3.66,1.74.95,3.59,1.66,5.42,2.39,3.6,1.15,7.13,2.14,10.72,3.86,1.53.58,3.13,1.54,4.6,1.97.34.09.77.1,1.01-.07,1-.82.55-2.75.03-3.92-1.2-2.78-3.97-4.4-5.86-6.65-1.97-1.88-3.36-4.32-5.28-6.23-1.35-1.54-3.24-2.65-3.92-4.57-.72-3.7,5.88-7.01,7.83-9.87,1.16-1.4,3.26-4.08,3.72-1.02.3,2.03.02,4.35.5,6.41.33,1.63,1.29,3.04,2.51,4.17,1.94,1.84,3.77,3.58,5.46,5.62,3.83,4.14,7.63,8.31,11.57,12.32,2.23,2.32,4.85,4.29,6.96,6.69,3.83,4.31,8.34,8.58,13.87,10.32,3.27,1.02,3.65,2.05,1.04,4.5-2.9,2.39-5.65,6.28-9.25,7.41-2.47.39-3.69-2.6-5.32-3.86-2.66-2.28-5.23-5.05-7.7-7.47-1.41-1.31-2.34-1.41-2.12.74.48,4.45,1.5,9.16,1.96,13.58.21,2.63,1.09,5.29.33,8.02-.89,3.16-3.94,5.27-6.43,7.25-2.05,1.45-3.78,3.39-5.83,4.85-2.33,1.38-1.57-1.33-.93-2.74,1.36-2.87,2.3-5.92,2.11-8.97.02-2.09-.46-4.24-.65-6.38-.2-3.02-.44-5.71-.91-8.6-.41-2.33-.04-5.01-1.02-7.15-1.23-2.17-4.02-2.6-6.24-3.44-2.17-.62-4.13-1.59-6.12-2.58-1.42-.62-2.94-.91-4.39-1.43-4.55-1.51-9.09-3.75-13.48-5.38-1.96-.86-3.76-2.17-5.78-2.86-1.5-.48-5.84-1.48-5.78-3.03" style="stroke: #000; stroke-miterlimit: 10;"/>
      <path d="M820.69,968.38c0-3.81.88-4.11.97-7.16.21-2.07-.24-5.79-.24-7.92.07-3.01.08-5.69-.13-8.6-.19-2.35.41-4.96-.37-7.17-1.02-2.28-3.72-3-5.83-4.07-2.08-.85-3.92-2.01-5.79-3.21-1.35-.76-2.81-1.21-4.2-1.88-2.82-1.21-5.43-2.82-8.1-4.28-1.61-1.03-3.25-1.55-4.69-2.48-1.85-1.06-3.51-2.54-5.43-3.44-1.43-.64-2.93-1.02-4.43-1.35-2.39-.54-4.44-1.41-6.69-2.23-1.46-.55-3.25-.89-4.51-1.87-.01-.01-.03-.02-.04-.03-.39-.27-.66-.64-.27-1.03.83-.94,2.04-1.13,3.32-1.41,1.5-.36,3.14-.27,4.76-.1,1.72.15,3.34.05,4.97-.34,1.36-.31,2.8-.49,4.17-.69,1.73-.15,3.23-1.28,4.99-.82,1.53.37,2.57,1.86,3.79,2.81,1.54,1.28,3.22,2.36,4.97,3.29,3.59,2.08,7.15,2.99,10.84,5.25,2,1.03,4.03,2.51,6.03,3.34.86.22,1.26-.19,1.46-1.16.58-4.11-3.35-6.92-5.47-9.93-1.33-1.64-2.46-3.48-3.56-5.28-1.24-1.81-2.79-3.33-4.02-5.08-1.77-2.61,1.08-4.8,2.95-6.18,1.78-1.43,3.78-2.54,5.37-4.25,1.33-1.32,3.3-3.2,3.49-.34.12,2.03-.36,4.29-.07,6.38.18,1.65,1,3.14,2.1,4.39,1.74,2.03,3.39,3.95,4.87,6.14,3.4,4.5,6.77,9.03,10.29,13.41,1.79,2.26,3.91,4.33,5.67,6.58,1.46,1.99,2.76,3.94,4.13,5.92.87,1.16,1.84,2.25,2.86,3.29,1.56,1.65,3.71,2.78,6,3.2,1.15.23,2.52.49,2.92,1.51.63,1.95-3.88,4.29-5.27,5.63-2.09,1.53-4.22,5.02-6.78,4.5-1.55-.55-2.87-3.11-3.89-4.28-1.02-1.33-2.28-2.51-3.35-3.82-.91-.79-5.9-7.35-6.81-6.13-.13.14-.26,1.24-.26,1.46-.11,2.53.61,4.2,1.1,7.02.53,3.09.13,5.78.41,9.36.46,5.9-1.6,6.93-6.08,9.84-1.52,1-3.36,3.89-5.12,4.11" style="stroke: #000; stroke-miterlimit: 10;"/>
      <path d="M774.64,996.79c-2.21-.49-2.15-3.16-3.08-4.89-1.47-2.5-2.78-4.95-3.51-7.75-.58-2.07-1.51-4.13-2.63-5.84-1.79-2.84-3.43-6.14-5.02-9.17-1.19-1.98-2.34-3.73-3.31-5.77-.83-1.9-1.43-3.95-2.49-5.76-1.73-3.32-3.4-6.77-3.89-10.54-.71-4.28-.13-8.59,1.52-12.36,1.56-2.45,3.94-4.52,6.06-6.47,2.43-2,5.45-3.04,8.51-3.75,3.22-.93,6.56-1.24,9.91-.18,2.72.85,4.72,3,7.15,4.5,5.22,2.95,7.78,8.62,10.51,13.66,3.54,4.79,7.02,10.08,10.46,15.01,2.19,3.09,3.89,6.89,7.27,9.02,1.48.92,3.24,1.45,4.96,1.89,1.45.37,3.1.16,4.35.78.94.8-3.15,3.11-3.83,3.63-3.08,2.06-6.45,4.21-9.83,5.64-1.73.92-3.73,2.26-4.9.36-2.11-4.33-5.22-8.3-7.36-12.65-.83-2-2.13-3.65-3.33-5.42-2.5-4.71-5.4-9.11-8.1-13.67-2.29-3.63-4.01-8.07-7.31-11.03-2.06-2.17-4.75-3.55-7.65-2.64-2.09.58-4.52,1.27-5.85,3.12-2.25,3.64-1.67,8.64-.42,12.71.97,3.15,3.33,5.43,4.77,8.33,3.23,7.28,7.65,13.75,12.07,20.34,2.68,4.2,4.4,7.03,9.67,8.41,1.18.32,3.48.54,3.99.92,1.14.99-5.5,4.09-6.41,4.86-2.42,1.41-5.03,2.58-7.66,3.55-1.39.69-3.04,1.34-4.55,1.18-.02,0-.04,0-.06-.01Z" style="stroke: #000; stroke-miterlimit: 10;"/>
      <path d="M710.98,973.53c-.71.06-.97-1.98-1.14-3.18-.25-2.58-.75-5.24-.71-7.8.01-1.57.09-3.13-.03-4.7-.34-4.39,2.65-4.47,5.84-5.36,2.65-1.05,4.83-2.13,7.39-3.2.94-.5,1.94-.89,2.85-1.43,1.32-.76,2.53-1.58,3.93-2.08,1-.37,2.18-.59,3.2-1.05,2.43-1.19,4.88-2.49,7.36-3.57,2.34-1.03,1.42,1.03,1.27,2.4-.51,3.44-.77,7.24,1.14,10.43.91,1.5,1.92,2.81,2.65,4.38.73,1.55,1.04,3.3,1.82,4.82.99,2.07,2.65,3.8,3.57,5.93,1.44,3.84,3.45,7.24,5.24,10.94,1.07,1.88,2.5,3.77,3.48,5.76,1.38,2.55,1.94,5.71,3.93,7.96,1.16,1.3,2.78,2.1,4.38,2.78,1.01.44,2.25.74,3.06,1.43.93.76-.51,1.6-1.17,2.02-1.7,1.06-3.56,1.99-5.25,2.95-3.48,1.65-7.46,5.04-9.68.06-1.22-2.72-2.39-5.49-4.02-8-.43-.7-.77-1.3-1.14-2.01-1.1-2.01-1.98-4.2-2.95-6.3-1.05-2.35-2.25-4.59-3.4-6.88-.95-1.85-1.7-3.92-2.59-5.78-1.1-2.27-2.3-4.44-3.26-6.78-1.39-2.98-3.27-9.6-6.26-10.88-2.05-.45-3.86,1.66-5.7,2.27-1.86.76-3.8.9-5.51,2.04-2.48,2.01-4.76,4.4-5.87,7.43-.51,1.34-.92,2.83-1.42,4.14-.29.72-.66,1.2-.97,1.25-.01,0-.02,0-.03,0Z" style="stroke: #000; stroke-miterlimit: 10;"/>
      <path d="M693.59,950.07c1.83,2.19,7.79,10.34,7.8,10.33,1.57,2.97,3.56,7.05,5.52,12.12,1.31,2.64,1.83,5.62,2.77,8.39.64,1.68,1.14,3.39,1.73,5.1.86,2.17,2.09,4.17,3.05,6.3.56,1.37.98,2.77,1.34,4.19.84,3.51,2.44,6.56,3.94,9.82,2.07,5.21,3.87,3.57,8.33,1.73,1.44-.54,2.92-1,4.33-1.62,2.08-.86,3.98-2.49,5.53-4.11.68-.71,1.47-1.73,2.25-2.2,1.68-.96,1.62,2.13,1.7,3.12.16,2.67,0,5.58-.63,8.17-.53,2.15-3,2.93-5,3.47-1.62.47-2.98,1.27-4.65,1.92-1.75.77-3.5,1.58-5.27,2.31-1.69.73-3.54,1.1-5.22,1.74-1.99.64-3.62,1.84-5.5,2.76-1.28.55-2.62.98-3.99,1.43-2.29.71-4.62,1.35-6.83,2.14-2.26.82-4.83,1.72-6.78.1-1.86-1.39-3.79-3.22-5.2-5.1-.74-.9-1.83-2.03-1.97-3.13,0-.01,0-.03,0-.04.04-1.48,4.72-.15,5.88-.36,3.41.07,6.9-.97,10.14-2.07,1.45-.52,3.16-1.43,3.51-2.94.22-2.18-1.56-3.73-2.27-5.87-.99-2.56-1.29-5.1-2.48-7.65-1.11-2.63-2.33-5.31-3.44-7.86-.88-2.17-.83-4.65-1.73-6.78-.87-1.88-1.84-3.46-2.54-5.58-1.16-2.82-2.1-5.9-3.34-8.75-.63-1.91-1.16-3.49-1.69-5.38-.3-.98-.96-3.15-1.08-4.14-.71-5.67-1.06-7.91-.98-10.48.02,0-.1-1.05.91-1.59.89-.47,1.85.49,1.87.51Z" style="stroke: #000; stroke-miterlimit: 10;"/>
      <path d="M665,984.29c-.92-2.33-1.26-4.73-2.09-7.12-.44-1.85-1.43-4.04-.8-5.83.48-1.15,1.71-.98,2.71-1.07.9-.22,2.61-.71,3.8-1.06,1.41-.33,6.84-2.86,7.75-1.44.5,1.08-.16,2.55-.5,3.6-.62,1.68-.88,3.21-.73,4.99.44,2.68,1.53,5.24,2.37,7.83,1.02,3.23,2.01,6.51,3.09,9.69.91,3.03,1.3,5.89,2.48,8.77,1.32,3.58,2.52,7.71,3.3,11.44.47,2.32,1.62,4.42,2.39,6.64.89,2.11,1.4,4.52,3.37,5.96,2.29,1.76,6.42,2.21.85,3.94-1.49.5-3.02.94-4.51,1.45-2.41.71-5.91,2.47-8.25,1.55-1-.62-1.19-1.94-1.52-2.98-.51-1.76-1.16-3.59-1.52-5.41-.69-3.27-2.07-6.1-3.1-9.27-.52-1.68-.97-3.32-1.48-4.99-.58-2.12-.68-4.1-1.33-6.08-.37-1.4-1.23-2.99-1.65-4.54-1.24-5.34-2.65-10.88-4.62-15.99,0-.03-.02-.05-.03-.08Z" style="stroke: #000; stroke-miterlimit: 10;"/>
      <path d="M629.53,1045.62c-.96-.95,2.16-3.79,2.53-5.16,1.2-2.82.95-5.86,1.54-8.91.55-3.84.03-7.57.33-11.46-.08-7.71-.05-15.48.49-23.15-.07-3.13-1.01-6.14-.47-9.25.17-1.89-.05-3.86-.15-5.77-.08-1.18-.14-2.48.36-3.46,1.53-2.7,4.98-2.51,7.45-3.62,1.46-.52,2.85-.96,4.35-1.26.8-.19,2.02-.21,2.68.11.1.07.15.16.14.29-.03.61-1.3,2.53-1.42,3.73-.18,1.12-.09,2.27.14,3.38.38,1.83,1.28,3.42,1.96,5.21.7,1.76,1.2,3.63,1.96,5.36,1.8,4.18,5.12,8.02,6.8,12.29.97,2.64,2.7,4.73,3.94,7.22,1.36,4.03,3.6,7.69,5.69,11.41,2.07,3.14,4.52,5.97,7.45,8.41,1.26,1.08,3.4,1.42,4.26,2.58.21.67-.76.87-2.02,1.48-3.22,1.43-6.41,1.94-9.86,2.71-5.19,1.59-5.6-2.67-7.86-5.83-1.57-2.21-2.49-4.73-3.66-7.24-.56-1.07-1.15-2.05-1.64-3.17-1.23-2.57-2.02-4.92-3.44-7.49-1.22-2.57-2.81-5-4.11-7.52-.74-1.48-2.1-5.25-2.36-1.53-.12,3.28.15,6.71.1,9.98.2,3.97-.26,8.01-.12,12,.04,3.71.55,7.19.3,10.91-.1,1.46-.06,3.31-.98,4.46-1.62,1.76-4.77,1.68-7.04,2.37-1.23.31-2.45.58-3.69.82-1.56.25-2.84.58-3.64.11-.01,0-.02-.02-.03-.03Z" style="stroke: #000; stroke-miterlimit: 10;"/>
      <path d="M538.49,998.46c.11,1.84-.23,3.81-.18,5.68,0,1.52.19,2.99.14,4.46-.53,5.5-.7,11.03-.86,16.59-.08,2.58-.22,5.1-.11,7.7.26,3.28,0,6.55.42,9.8.35,2.43,1.62,4.69,3.68,6.12,1.74,1.35,9.83,4.48,2.96,4.69-3.34-.08-6.61-.4-9.93.04-3.08.28-6.27-.23-9.37-.13-2.51.04-4.91-.43-7.32-.84-2.9-.2-6.08.06-9,.31-3.22.53-6.28,1.21-9.44,1.51-7.11.64-5.97.66-2.6-4.4.02-.03.03-.05.05-.08.92-1.43,1.86-2.89,2.93-4.31,1.69-2.46,3.45-4.07,6.39-3.86,3.2.27,6.16,1.09,9.45,1.37,1.93.21,3.89.24,5.81.35,5.18.48,4.22-2.82,4.42-6.34.15-3.17,2.1-9.66-1.46-11.3-1.11-.44-2.46-.47-3.67-.44-1.95.06-4.04-.09-5.91.46-2.13.46-3.15.56-4.97,1.61-3.05,1.23-.18-3.69-.06-4.65.54-1.41.83-2.91,1.49-4.26,1.81-3.66,7-1.99,10.2-2.16.7.04,1.36.1,2.04.08,4.11.08,3.66-5.23,3.61-8.21-.23-3.08.22-6.35.01-9.43-.08-2.17-1.52-3.64-3.55-3.67-2.45-.19-5.41-.14-8.06-.18-4.89-.23-9.14,3.15-12.26,6.97-1.53,1.78-2.66,2.01-2.17-.82.31-1.39.94-2.77,1.55-4.06,1.31-2.64,2.35-5.44,3.51-8.18.71-1.78,1.94-3.53,3.75-3.8,2.46-.35,4.97.35,7.43.38,5.34.34,10.69.98,16.04.42,3.04-.36,2.43.2,5.62-.09,1.08-.1,2.35-.11,3.35.14.18.07.31.08.41.25.07.14-.03.29-.27.48-.5.41-2.45,3.48-2.79,4.12" style="stroke: #000; stroke-miterlimit: 10;"/>
      <path d="M223.09,843.42c2.21-4.73,4.09,9.28,4.57,10.41.42,1.75.74,3.52,1.24,5.26.5,2.6,1.99,4.84,1.84,7.44-.78,4.43-3.04,8.48-4.83,12.73-.99,2.2-1.45,4.32-2.06,6.61-.62,1.83-1.5,3.48-1.94,5.18-.82,2.91,2.03,6.2,5.02,6.04,2.12-.25,3.34-2.28,4.94-4.14,1.21-1.52,2.49-3,3.83-4.39,2.24-2.38,5.5-6.59,7.53-9.12,1.44-2.07,2.54-3.54,4.8-1.6,2.75,2.11,5.24,4.46,7.86,6.66.69.62,2.4,4.45.79,5.13-.69.21-1.33-1.21-2.74-1.24-4.75-.39-7.75,5.44-10.37,8.67-1.28,1.53-2.64,2.79-3.95,4.21-2.33,2.65-4.16,5.61-6.48,8.29-3.39,4.03-6.85,8.09-9.87,12.44-.87,1.1-1.72,2.29-2.56,3.39-1.36,1.84-3.03,3.48-3.92,5.55-.56,1.51-.45,3.22-.2,4.9.26,2.22,1.84,6.12-2.1,3.52-2.36-1.38-4.47-3.16-6.4-5.13-2.37-2.38-5.15-4.28-7.67-6.43-2.53-2.33-4.61-4.69-7.27-6.93-.83-.69-1.64-1.44-2.34-2.26-2.66-2.86-3.3-6.54-3.89-10.07-1.18-6.1,1.07-12.34,5.67-15.89,1.53-1.11,3.27-1.91,4.95-2.77,2.63-1.44,5.21-2.99,8.36-2.8.66.02,1.32.09,2,.2,4.66,1,5.89-1.11,6.68-5.12.68-2.93,1.29-5.82,2.12-8.63,1.27-3.35,2.33-6.67,2.92-10.18.61-3.4.93-6.84,1.97-10.13.63-2.95.24-6.85,1.48-9.74,0-.02.02-.04.03-.07ZM204.55,898.42c-6.03,3.06-10.31,10.42-3.91,16.5,1.41,1.37,2.81,2.71,4.32,3.98,1.73,1.44,3.33,2.1,4.71.41,2.98-3.77,6.38-7.49,9.31-11.34.52-.63.96-1.4,1-2.16.04-1.81-1.92-3.1-3.19-4.24-1.49-1.19-2.53-2.22-3.88-2.96-2.58-1.39-5.72-1.43-8.28-.22-.03.01-.05.03-.08.04Z" style="stroke: #000; stroke-miterlimit: 10;"/>
      <path d="M446.4,1035.05c.74-1.29,4.22,2.08,5.33,2.44,2.96,1.67,6.52,2.39,9.87,2.94,1.51.23,3.45.22,4.46-.94,1.22-1.82.4-4.02.78-6.24.34-2.72,1.28-5.1,1.44-7.91.27-2.84.47-5.77.7-8.55.25-2.32,1.47-4.49,1.68-6.79.12-2.07.03-3.92.41-6.11.31-3.03.95-6.19,1.21-9.28.36-1.98.63-3.62,1.06-5.53.2-1,.23-2.22.61-3.14,1.27-3.26,4.77-3.17,7.1-5.21,2.37-1.75,4.36-4.03,6.25-6.32.38-.46.87-.96,1.29-1.26.5-.36.85-.46.96-.22.2.83-.86,2.51-1.24,3.45-.68,1.39-1.23,2.85-1.82,4.22-1.16,2.68-2.66,4.9-3.17,7.75-.58,4.29-1.2,8.96-.89,13.29-.1,2.94-1.05,5.81-1.54,8.7-.23,1.78-.61,3.53-.89,5.31-.27,2.31-.15,4.66-.31,6.99-.15,1.47-.45,2.9-.8,4.32-.92,3.49-.96,6.93-1.19,10.51-.65,5.57,1.69,4.97,6.45,5.45,1.51.2,3.02.49,4.53.61,2.21.23,4.63-.32,6.75-1.02.93-.3,2.09-.84,2.99-.88,1.91-.06.41,2.63.01,3.56-1.12,2.42-2.62,4.92-4.38,6.9-1.48,1.64-3.99,1.17-5.98.7-1.63-.35-3.19-.29-4.96-.5-1.89-.15-3.79-.26-5.68-.45-1.82-.15-3.61-.7-5.38-.92-2.05-.37-4.03-.08-6.11-.16-1.38-.12-2.75-.37-4.17-.61-2.34-.45-4.68-.98-6.99-1.33-2.37-.34-5.05-.75-6-3.1-.98-2.11-1.81-4.63-2.16-6.94-.22-1.14-.64-2.65-.25-3.69,0-.01.01-.02.02-.03Z" style="stroke: #000; stroke-miterlimit: 10;"/>
      <path d="M312.9,1002.19c-1.34-1.96,4.61-1.98,5.79-2.91,2.7-1.11,3.38-3.93,4.43-6.32,1.33-2.51,2.95-4.71,4.04-7.49.48-1.17,1.09-2.29,1.7-3.39,2.02-3.48,2.95-7.9,4.8-11.42.98-1.72,2.05-3.43,3.29-4.97,1.33-1.69,2.06-3.74,2.57-5.79.62-2.02,1.35-4.04,2.07-6.09.36-1.1.54-2.46,1.12-3.28.58-.87,1.33-1.47,2.03-2.27.91-.85,1.68-2.24,2.83-2.64,1.2-.34,2.38.41,3.4.9.73.35,1.54.21,2.36,1,2.85,2.32.49,6.5,1.09,9.55.17.74.37,1.42.43,2.19.3,5.44.84,11.37,1.27,16.86.14,3.6.33,6.64.62,10.26.07,1.1-.13,2.39.56,3.28.96.73,1.6-2.44,1.75-3.17.7-3.11,2.43-5.96,3.05-9.09.67-3.53,3.06-6.34,4.16-9.72.84-2.65,2.14-5.02,2.88-7.73.43-1.6.92-3.28,1.9-4.61.79-1.18,2.01-1.87,3.18-2.56,1.44-.88,2.95-1.59,4.38-2.45,2.8-2.02,5.73-3.55,8.48-5.78,4.73-3.56,1.44.88.45,3.31-1.11,2.51-2.48,4.82-3.64,7.28-.6,1.4-1.07,2.74-1.7,4.08-1.65,3.39-3.4,6.75-5.18,10.07-1.32,2.73-2.22,5.75-3.51,8.41-.9,2.91-1.9,5.97-3.04,8.87-1.05,2.66-1.99,5.38-2.44,8.19-.56,2.47-2.09,4.67-2.98,7.07-1.11,2.71-1.99,5.42-2.84,8.24-.5,1.55-.73,3.18-.39,4.82.09,2.24,2.15,5.18,2.57,6.99-.07,1.67-4.21-.35-5.37-.69-1.5-.53-2.97-1.09-4.49-1.65-2.5-.86-5.71-1.65-6.54-4.3-.92-2.95-.64-5.59-.61-8.7-.12-2.6-.61-5.14-1.09-7.68-.33-2.98-.32-6.11-.29-9.06.12-2.13.37-3.93-.24-5.93-.29-1.07-.61-2.22-.66-3.48-.05-.87.04-1.86-.13-2.68-1-3.17-3.15,4.28-3.52,5.16-2.08,5.37-4.22,10.65-6.5,15.95-.56,1.33-1.06,2.62-1.67,3.84-.69,1.38-1.47,2.76-1.86,4.25-1.16,4.56-6.77.48-9.65-.71-2.47-1.45-6.95-2.22-8.81-3.95-.01-.01-.02-.03-.03-.04Z" style="stroke: #000; stroke-miterlimit: 10;"/>
      <path d="M321.85,946.98c.96-2.32,2.38-4.27,3.45-6.57.97-1.63-.15-4.36,1.57-5.2,1.16-.48,3.86.95,4.66,1.59.82.47,2.41,1.32,3.53,1.9,1.26.74,5.73,2.1,5.4,3.75-.39,1.12-1.91,1.72-2.89,2.22-1.63.77-1.6,2.33-2.73,3.71-1.55,2.23-2.54,4.84-3.74,7.28-1.51,3.03-3.07,6.08-4.51,9.12-1.45,2.81-3.17,5.13-4.31,8.03-1.54,3.5-3.55,7.3-5.58,10.52-1.28,2-1.9,4.3-2.89,6.44q-.83,2.14-2.21,5.24c-1.16,2.6,2.18,6.74-3.08,4.09-1.43-.69-1.41-.7-2.86-1.38-2.26-1.18-6.06-2.37-7.13-4.67-.3-1.14.48-2.22.96-3.2.86-1.62,1.66-3.39,2.67-4.95,1.78-2.83,2.75-5.83,4.21-8.83.79-1.56,1.61-3.05,2.41-4.61,1.06-1.93,2.37-3.42,3.28-5.29.71-1.26,1.19-3.01,1.97-4.41,2.83-4.7,5.67-9.66,7.8-14.71.01-.02.02-.05.03-.07Z" style="stroke: #000; stroke-miterlimit: 10;"/>
      <path d="M310.2,928.03q-.26,1.83-1.08,5.09c-1.24,4.96-1.67,7-2.6,9.49-.85,2.26-1.34,4.72-1.81,7.21-.57,3.69-2.24,6.88-3.02,10.44-.3,1.31-.49,2.6-.93,3.91-.43,1.14-1.04,2.22-1.42,3.43-1.44,4.86-3.03,9.82-3.01,15-.04,1.8-.08,3.66.31,5.49.24,1.11.8,2.29,1.08,3.15.19.65.31,1.05.03,1.38-.29.3-1.18-.05-2.41-.52-1.54-.57-2.97-1.28-4.37-2.08-1.66-.85-3.06-1.94-4.78-2.92-1.17-.66-2.39-1.52-2.81-2.8-.53-1.97.6-4,.9-5.96.46-3.52,2.02-6.71,2.97-10.15.92-3.42,2.41-6.31,3.34-9.79,1.09-3.47,1.88-7.46,3.06-10.83,1.15-4.23-6.87,5.75-7.6,6.12-2.78,3.14-6.04,5.87-8.93,8.93-2.74,2.79-4.9,5.81-7.83,8.43-1.1.97-2.37,2.33-3.86,2.49-2.33.12-4.55-2.06-6.62-3.16-1.22-.71-2.42-1.44-3.6-2.22-1.33-.94-2.53-1.62-2.79-2.52,0-.01,0-.03,0-.04-.04-1.36,4.27-1.16,5.51-1.87,2.87-1.15,4.83-3.5,7.4-5.26,3.11-2.35,5.34-5.39,8.3-7.94,5.36-5.57,10.41-11.37,16.21-16.46,2.15-2.28,4.1-4.14,6.3-6.24,2.32-2.22,2.38-2.07,4.88-4.64,0,0,1.28-1.32,3.34-3.07.28-.24.99-1.05,2.19-1.55,1.43-.61,2.74-1,3.29-.75.15.07.59.2.93,2.5.19,1.31-.08,3.06-.11,4.35-.05,1.94-.29,2.36-.43,3.39Z" style="stroke: #000; stroke-miterlimit: 10;"/>
      <path d="M215.99,937.38c1.59-.63,1.94-2.33,3.67-2.86,2.85-1.01,5.28-1.28,7.69.67,2.6,2.15,4.69,4.6,7.37,6.81,1.54,1.33,3.21,2.52,4.81,3.76,4.19,3.48,5.23.18,7.39-2.6,1.92-2.53,7.27-6.72,5.14-10.2-.71-1.03-1.85-1.86-2.9-2.55-1.71-1.11-3.43-2.49-5.35-3.16-2.09-.9-2.19-.77-4.35-1-3.33-.81,1.51-3.49,2.16-4.2,1.26-.84,2.36-1.91,3.69-2.63,3.63-1.94,6.75,2.24,9.6,4,.59.45,1.12.89,1.71,1.28,3.49,2.52,6.11-2.14,7.75-4.63,1.55-2.68,3.78-5.11,5.35-7.77,1.16-1.84.75-3.91-.97-5.15-2-1.62-4.57-3.35-6.84-4.97-4.08-3.12-9.65-2.9-14.51-1.63-2.33.55-3.43.05-1.41-1.99,1.05-.96,2.38-1.72,3.63-2.42,2.62-1.38,5.1-3.08,7.65-4.63,1.61-1.04,3.67-1.75,5.38-.87,2.32,1.19,4.09,3.28,6.19,4.78,4.4,3.48,8.65,7.2,13.56,9.91,2.81,1.51,4.74,3.53,7.65,5.15.98.55,2.09,1.28,2.81,2.07.12.16.22.25.22.44-.02.15-.19.22-.51.24-.67.05-1.47-.09-2.18-.18-2.38-.36-5.05-.47-7.2.88-1.75,1.09-2.58,3.09-3.64,4.78-.95,1.58-2.35,3.01-3.37,4.58-.86,1.25-1.53,2.57-2.41,3.76-3.56,4.22-6.84,8.69-10.12,13.18-1.52,2.08-3.07,4.08-4.45,6.29-1.63,2.87-3.71,5.4-5.19,8.33-1.08,2.2-1.27,4.83-.31,7.22.73,2.14,5.88,9.48-.12,5.61-2.81-2.03-5.43-4.22-8.53-5.83-2.81-1.59-5.25-3.9-7.97-5.66-2.18-1.46-3.98-3.28-5.82-5.06-2.39-1.9-4.52-3.65-7.17-5.19-3.07-1.51-1.99-.6-8.46-5.97" style="stroke: #000; stroke-miterlimit: 10;"/>
      <path d="M533.02,985.89c4.25-.62,5.83-.63,6.94-.7,2.39-.17,5.47.1,6.95.96,2.07,1.48,2.27,1.36,3.91,3.32,2.41,3.68,3.61,8.14,5.24,12.42.8,2.26,1.91,4.08,3.03,6.14.81,1.73,1.32,3.52,2.16,5.04,1.39,2.64,5.48,2.97,7.36.75,1.25-1.67.71-3.97.53-6.41-.21-1.93-.35-3.88-.38-5.81-.1-3.26-.61-6.52-.95-9.75-.43-2.46-.66-4.32,2.15-4.51,3.25-.43,6.56,0,9.81-.28.89-.05,4.43-.54,3.8,1.08-.32.63-1.56,1.59-2.54,2.56-3.45,3.02-1.73,7.32-1.32,11.42.17,1.98.1,3.84.18,5.77.22,3.52.97,6.91,1.22,10.45.45,5.02.76,10.13,1.65,15.12.2,1.61.44,3.27.65,4.87.33,2.26.3,4.61,1.1,6.7.63,1.47,1.86,2.6,3.16,3.63,1.67,1.4,5.35,3.07.95,3.98-2.51.67-5.13.88-7.73.83-3.18-.04-6.31.57-9.43.82-3.24.13-6.2-.08-9.45.21-1.01.1-2.04.13-3.05.05-3.66-.15-6.52-2.29-9.24-4.37-4.82-3.48-7.44-9.47-6.76-15.23.28-1.87.89-3.67,1.43-5.46.78-2.88,1.45-5.8,3.66-7.9.45-.45.93-.86,1.45-1.27,3.74-2.59,3.15-4.95,1.02-8.34-1.49-2.55-3-5.03-4.31-7.6-1.38-3.26-2.87-6.36-4.79-9.25-1.83-2.83-3.41-3.91-6.22-5.52-3.52-2.03-4.12-1.6-3.7-2.97.51-.24,1.02-.49,1.53-.74ZM554.65,1030.54c-1.96,6.43.08,14.65,8.36,14.44,1.85-.02,3.67-.06,5.52-.22,2.11-.19,3.62-.85,3.41-3.02-.53-4.78-.75-9.8-1.37-14.6-.08-.81-.29-1.66-.78-2.24-1.19-1.31-3.35-.84-4.95-.77-1.78.21-3.16.21-4.54.64-2.64.83-4.74,3.02-5.63,5.69,0,.03-.02.06-.03.08Z" style="stroke: #000; stroke-miterlimit: 10;"/>
      <path d="M179.62,841.37c2.31-2.48,5.43-4.01,8.73-4.9,2.66-.97,5.45-1.4,8.09-1.24,2.78-.03,5.71-.12,8.08,1.53,1.14.72,2.26,1.47,3.36,2.25,1.95,1.21,3.74,2.25,5.35,3.98,2.85,3.3,5.2,7.62,4.99,12.14-.09,2.74-.26,5.42-.72,8.21-.29,1.74-.58,3.6-1.56,4.63-1.43,1.57-3.79.79-5.68.57-2.75-.51-6.05.57-8.79-.42-2.87-1.25.92-3,2.13-3.97,1.16-1.08,2.37-2.18,3.3-3.48,1.81-2.98,1.1-7.05-.94-9.71-1.75-1.76-3.43-3.86-5.84-4.72-4.36-1.18-12.57,1.72-14.54,6.01-1.67,3.07-.24,6.6,1.04,9.68,1.5,3.64,2.87,7.71,4.69,11.29,3.27,6.42,1.24,14.38-3.91,18.66-2.91,2.67-7,3.93-11.15,3.79-3.26-.1-6.5-1.63-9.43-3.21-2.58-1.34-5.01-3.02-6.93-5.32-1.61-1.8-3.39-3.39-3.99-5.67-.53-3.02-1.5-6.06-1.95-9.07-.2-2.69-.06-5.47,1.11-7.71,1.38-1.82,3.92-1.29,6.46-1.52,1.21.08,10.71-1.39,8.84,1.56-.92,1.19-2.45,2.24-3.27,3.62-1.34,2.49-2.99,5.22-2.17,8.34.72,2.46,1.97,4.95,4.02,6.56,6.14,4.18,13.5.37,12.98-6.73-.23-2.91-1.94-5.56-3.1-8.25-1.68-3.79-3.14-7.41-4.22-11.2-1.38-5.36,1.23-12.09,4.91-15.65.02-.02.04-.04.06-.06Z" style="stroke: #000; stroke-miterlimit: 10;"/>
      <path d="M362.97,1022.86c3.37,1.3,6.89,3.1,10.44,3.73,1.85.51,4.21.87,4.94-1.24,1.1-4.6,3.2-9.07,4.36-13.69.04-.17.08-.34.11-.52.37-1.87,1.13-3.56,1.84-5.31.12-.3.22-.6.31-.91,1.26-4.41,2.93-8.67,4.21-13.06,1.04-3.57,2.26-9.25,4.72-13.34,1.79-2.98,4.92-4.87,8.2-4.83.02,0,.04,0,.06,0,2.23.04,4.34,1,6.15,2.12,2.59,1.49,3.37,4.38,3.16,7.37.04,4.42-2.04,8.7-3.14,12.85-1.46,4.93-2.7,9.88-4.36,14.77-.1.31-.2.62-.27.94-.41,1.84-.75,3.67-1.5,5.41-.07.16-.14.32-.2.49-1.67,4.47-2.48,9.34-4.18,13.75-.6,2.14,1.55,3.18,3.36,3.81,3.27,1.48,7.17,1.98,10.67,2.81.82.14,5.17,1.54,5.12.3-.38-1.34-1.6-2.39-2.29-3.7-.8-1.55-1.58-3.2-1.89-4.9-.69-3.91.93-7.75,1.72-11.45,1.24-5.66,2.7-11.56,3.81-17.21.09-.44.2-.86.34-1.29,1.81-5.24,3.97-10.75,2.72-16.34-.52-2.79-.29-5.71-1.46-8.28-1.45-3.16-3.88-5.37-6.68-7.08-2.44-1.68-5.09-3.12-8.02-3.58-.23-.04-.45-.06-.68-.07-2.31-.17-4.77-.4-7.12-.15-.84.09-1.67.31-2.47.65-3.37,1.44-6.45,3.79-8.81,6.87-.77.93-1.43,1.93-2.02,2.97-.12.21-.25.42-.39.63-1.72,2.56-2.75,5.55-3.62,8.56-.16.56-.37,1.11-.63,1.64-.32.66-.64,1.31-.93,1.98-.7,1.78-1.17,3.51-1.69,5.34-.1.34-.21.67-.35,1-1.52,3.73-2.99,7.54-4.49,11.2-1.46,3.49-2.3,7.57-5.1,10.4-1.23,1.23-2.81,2.14-4.36,2.96-1.32.69-2.93.86-4.01,1.74-.74.99,3.66,2.3,4.42,2.65Z" style="stroke: #000; stroke-miterlimit: 10;"/>
      <path d="M588.57,1050.21c.43-2.71,1.23-3.08,2.04-4.67,1.23-2.72,2.51-2.88,5.46-3.2,3.21-.31,4.53-.66,7.83-.95,1.95-.12,3.39-1.02,5.31-1.25,5.21-.42,3.68-3.51,3.27-7.01-.41-3.15.39-9.88-3.41-10.88-1.18-.24-2.51-.04-3.7.2-1.92.4-3.01.48-4.76,1.35-2.02.82-3.33,2.67-4.96,4.02-2.8,1.74.01-5.23-.04-6.2.29-1.48.3-3.01.71-4.46,1.13-3.93,5.09-3,8.22-3.72.7-.09,1.36-.14,2.03-.27,4.08-.63,2.71-5.79,2.14-8.71-.76-3-.89-6.29-1.63-9.29-.46-2.13-2.14-3.32-4.15-3.01-2.46.23-5.37.79-8,1.22-4.89.61-7.75,2.55-10.14,6.86-1.19,2.02-2.26,2.44-2.28-.43.06-1.42.44-2.89.81-4.27.83-2.82.61-3.65,1.29-6.55.39-1.87,1.3-3.82,3.05-4.38,2.37-.77,4.97-.51,7.41-.91,5.34-.58,10.75-.88,15.94-2.36,2.95-.88,4.27-.53,7.38-1.38,1.05-.29,2.3-.53,3.34-.46.19.03.32.03.45.17.09.12.02.29-.18.53-.43.5-1.08.95-1.63,1.38-1.89,1.39-2.41,2.92-2.96,5.38-.46,2,.33,4.01.76,5.96.42,1.79.44,3.79.81,5.62.27,1.5.71,2.91.91,4.37.43,5.5,1.23,10.99,2.03,16.48.37,2.55.67,5.06,1.23,7.6.83,3.19,1.14,6.45,2.12,9.58.76,2.33,2.42,4.34,4.71,5.39,1.96,1.03,10.51,2.71,3.74,4.1-3.32.5-6.61.75-9.82,1.76-3,.82-6.24.86-9.29,1.49-2.47.48-4.93.42-7.39.44-2.9.31-6,1.11-8.84,1.86-3.08,1.08-6.56,1.4-9.1.01" style="stroke: #000; stroke-miterlimit: 10;"/>
    </g>
  </g>
  <path d="M544.3,954.51c-294.84,1.94-494.99-298.45-383.96-570.63,60.44-151.79,215.45-259.61,379.4-259.05,226.7-4.2,416.25,187.38,415.27,413.13,3.52,225.65-184.76,417.61-410.71,416.55h0ZM544.3,954.01c150.79.24,290.68-88.71,359.17-222.26,140.47-274.06-53.57-603.48-363.71-604.18-312.68,2.44-500.95,334.38-357.18,608.22,70.09,132.71,210.91,220.19,361.73,218.22h0Z"/>
  <path d="M1028.5,604.19c-3.61-1.01-25.2-18.19-26.86-29.39-.92-6.22,3.68-13.04,14.41-25.15,9.42-10.62,14.53-14.29,15.31-19.52.93-6.27.78-19.04-21.79-33.29" style="fill: none; stroke: #000; stroke-miterlimit: 10; stroke-width: 10px;"/>
  <circle cx="1008.35" cy="527.72" r="10.62" style="fill: none; stroke: #000; stroke-miterlimit: 10; stroke-width: 10px;"/>
  <circle cx="1024.1" cy="572.33" r="10.62" style="fill: none; stroke: #000; stroke-miterlimit: 10; stroke-width: 10px;"/>
  <path d="M39.91,546.24c1.34-.75,10.36-5.58,20.23-1.74,9.05,3.52,15.13,12.89,15.08,23.52" style="fill: none; stroke: #000; stroke-miterlimit: 10; stroke-width: 10px;"/>
  <path d="M61.18,506.38c.43,3.21,2.14,12.8,10.28,20.33,13.58,12.56,32.29,7.58,33.49,7.24" style="fill: none; stroke: #000; stroke-miterlimit: 10; stroke-width: 10px;"/>
  <path d="M53.79,574.87c-.61-8.91.73-15.95,1.96-20.46,6.07-22.32,23.15-34.13,27.78-37.22,6.33-4.23,12.22-6.65,16.32-8.05" style="fill: none; stroke: #000; stroke-miterlimit: 10; stroke-width: 10px;"/>
  <path d="M910.75,665.37c-187.82-133.25-401.87-283.72-588.88-417.6,0,0,5.52-4.04,5.52-4.04,14.06,42.96,41.89,129.08,55.76,172.05,51.48,160.11,114.15,357.56,166.09,516.55,0,0-2.3.01-2.3.01,49.27-155.85,110.78-354.8,159.49-511.54,0,0,53.23-170.49,53.23-170.49,0,0,5.59,3.98,5.59,3.98-94.93,70.93-336.61,251.44-428.54,319.65,0,0-143.13,106.16-143.13,106.16,0,0-2.45-7.21-2.45-7.21,228.36-3.19,491.72-4.7,719.62-7.53h0ZM911.52,665.61c-227.86,4.47-491.92,11.21-720.26,15.29,0,0-12.44.24-12.44.24,76.17-56.91,219.45-163.7,295.79-220.4,0,0,286.34-212.23,286.34-212.23,0,0,8.99-6.66,8.99-6.66,0,0-3.39,10.64-3.39,10.64,0,0-54.28,170.16-54.28,170.16-50.27,156.48-113.74,354.34-163.03,510.42,0,0-1.13,3.58-1.13,3.58,0,0-1.17-3.57-1.17-3.57-32.38-99.16-79.76-243.05-113.23-343.55-32.07-97.11-82.05-247.29-113.17-343.57,0,0-3.42-10.47-3.42-10.47,0,0,8.93,6.43,8.93,6.43,187.25,134.2,398.69,288.58,585.46,423.68h0Z"/>
  <path d="M546.5,15.35c-191.98-2.83-373.78,109.45-462.77,278.65-184.16,349.87,57.61,774.69,456.96,777.9,397.19-.93,645.19-421.7,465.35-772.75C919.04,128.91,738.46,14.68,546.5,15.35h0ZM546.5,14.85c288.99-.98,528.32,243.8,524.1,532.23.95,288.53-240.16,532.38-529.92,527.55-288.59-.27-526.67-245.69-523.5-533.35C15.36,252.85,257.76,10.71,546.5,14.85h0Z"/>
</svg>