<?xml version="1.0" encoding="UTF-8"?>
<svg id="Layer_1" data-name="Layer 1" xmlns="http://www.w3.org/2000/svg" width="1683.28" height="177.7" viewBox="0 0 1683.28 177.7">
  <path d="M117.86,72.01c.58,5.96-.79,11.89-1.14,17.86-1.43,9.59-3.51,19.38-7.76,28.06-2.36,5.25-4.61,10.64-8.89,14.61-2.79,2.58-6.01,4.85-9.11,7.16-3.51,2.44-7.16,5.04-11.45,5.7-7.59,1.3-15.58,1.92-22.68-1.44-5.28-2.45-10.65-3.99-15.06-8.06-3.96-3.53-6.65-8.43-9.16-13.08-3.62-7.15-6.79-14.58-8.35-22.57-.5-2.83-.65-5.69-1.2-8.49-2.62-11.93-2.32-24.13.64-35.94.99-5.03,1.52-10.1,3.58-14.82,2.89-6.07,8.29-10.38,11.96-15.91,3.95-5.85,9.41-10.83,15.84-13.62,3.42-1.65,6.96-2.19,10.65-2.42,3.56-.39,7.12-.15,10.61.51,3,.4,5.88,1.76,8.62,3.27,3.91,1.7,7.42,4.01,11.01,6.21,5,3.46,7.77,8.95,10.73,14.17,4.16,7.77,7.42,16.05,8.98,24.88.52,4.6,1.79,9.23,2.18,13.74l.02.17ZM95.44,75.35c-.33-3.55-1.05-9.08-1.55-12.7-.47-5.63-1.46-11.36-3.97-16.5-2.92-6.09-7.3-12.16-12.62-16-2.31-1.78-5-3.42-7.79-3.31-3.95.05-7.04,2.68-10.31,5.41-9.2,8.74-14.9,24.04-15.82,36.47-1.22,10.81.74,21.59,2.71,32.19,3.73,11.75,13.18,30.46,28.35,25.1,5.19-1.79,9.67-5.6,12.06-10.66,6.27-12.75,9.79-14.97,9.05-29.07l-.11-10.94Z" style="fill: #ec2b8c; stroke: #ec2b8c; stroke-miterlimit: 10;"/>
  <path d="M193.12,143.6c-5.17.71-9.4.66-14.39-.61-1.14-.41-2.18-1.07-2.99-1.98-2.95-3.7-2.53-9.17-4.68-13.35-1.4-3.65-3.27-7.09-5.08-10.53-3.9-6.35-7.8-12.41-10.78-19.63-1.47-2.87-2.53-6.36-4.08-8.93-.36-.58-.97-1.16-1.53-1.23-2.47-.12-4.3,3.29-5.07,5.67-1.89,5.63-.05,11.65-.27,17.44.37,5.33-.84,10.73-.57,16.05-.09,4.02,1.23,8.15-.35,11.83-3.99,6.35-18.33,2.23-25.12,3.58-3.63.4-10.42,1.25-6.78-3.67,2.4-3.26,6.02-6.14,8.18-9.73,1.78-2.76,2.31-6.07,2.12-9.34-.24-5.25-.48-10.22-.12-15.41.18-11.09.44-22.19.29-33.24-.02-6.33-.99-12.7-.74-18.97.4-11.34-.2-23.52-5.07-33.57-2.88-5.94-2.08-7.89,4.17-7.79,6.57.58,14.74-1.28,20.76,1.87,3.68,2.71,1.71,8.67,2.34,12.67.78,6.84.83,14.27,1.2,21.06.29,3.76,1.43,5.15,3.78,1.72,4.8-7.12,9.08-15.37,13.68-22.5,2.82-4.17,4.75-9.23,8.93-12.32,4.85-3.57,11.38-2.85,17.04-2.73,4.45.38,9.01-.42,13.49-.14,4.78.76.71,3.98-1.78,5.34-5.11,2.71-9.89,6.15-13.13,11.02-2.43,3.14-4.27,6.97-6.5,10.43-3.26,4.8-6.12,9.12-8.93,14.03-2.23,4-6,7.5-7.24,11.94-.94,4.81,2.47,9.05,4.62,13.16,2.34,3.71,3.99,7.67,5.65,11.7,1.31,2.74,3.18,5.11,4.69,7.73,4.87,8.05,8.92,17.15,13.64,25.11,1.95,3.75,3.1,7.98,5.39,11.54,1.74,2.6,7.38,9.47,5.32,11.78" style="fill: #ec2b8c; stroke: #ec2b8c; stroke-miterlimit: 10;"/>
  <path d="M287.3,14.08c-3.8,6.26-5.46,5.79-8.71,10.66-2.43,3.14-5.59,9.69-7.83,13.15-3.26,4.8-6.12,9.12-8.93,14.03-2.23,4-6,7.5-7.24,11.94-.94,4.81,2.47,9.05,4.62,13.16,2.34,3.71,3.99,7.67,5.65,11.7,1.31,2.74,3.18,5.11,4.69,7.73,3.24,5.11,5.73,10.6,8.55,15.93,1.53,3.45,3.69,6.09,5.09,9.18,1.95,3.75,3.1,7.98,5.39,11.54,1.74,2.6,3.92,4.83,6.16,6.98,3.56,3.44,6.19,7.06,9.27,10.8,1.98,2.44,4.81,4.89,5.98,7.84l.04.1c.39.85.46,1.75-.68,1.99-2.57.7-4.98-.25-7.59-1.15-3.12-.99-5.93-2.9-8.6-4.9-2.87-2.09-5.84-3.67-9.14-4.81-2.75-.98-5.45-2.25-8.06-3.44-3.17-1.67-7.07-1.5-9.54-4.23-2.18-2.31-2.19-5.88-3.13-8.79-1.09-3.8-2.64-7.43-4.46-10.92-3.53-7.41-8.27-12.93-11.56-20.79-2.01-3.94-3.52-8.65-5.71-12.29-1.09-1.34-2.19-1.15-3.63.13-5.67,5.8-2.81,14.85-2.99,22.09.17,4.15-.2,8.37-.6,12.51-.18,4.3.52,8.54.4,12.74-.28,6.21-7.71,6.29-12.49,6.19-4.7.1-9.35-.59-14.09.1-3.84.41-9.4.86-6.04-3.75,2.4-3.26,6.02-6.14,8.18-9.73,1.78-2.76,2.31-6.07,2.12-9.34-.24-5.25-.48-10.22-.12-15.41.18-11.09.44-22.19.29-33.24-.03-5.67-.78-11.45-.79-17.07.14-4.84.48-9.44.74-14.17.04-2.85-.12-5.73-.41-8.55-.39-4.45-2.2-8.81-4.96-12.26-1.37-1.76-3-3.83-2.42-5.9,1.29-3.76,10.19-1.87,13.64-2.31,4.65.14,11.44-2.79,14.57,1.04,1.64,2.69.8,8.28,1.02,11.32.04,3.3.61,6.64.75,9.96.47,2.31.64,18.53,3.39,17.67.36-.07,1.77-1.65,2.01-2.01,2.96-3.88,3.71-7.37,6.04-12.42,2.55-5.53,6.04-9.36,9.38-15.42,5.51-9.99,9.57-9.3,19.24-9.06,3.3.06,8.96-2.65,11.85-1.11" style="fill: #ec2b8c; stroke: #ec2b8c; stroke-miterlimit: 10;"/>
  <path d="M386.14,11.64c3.2,2.84.85,7.46.91,11.31.3,5.7.39,11.16-.81,16.7-.82,4.15-1.05,8.57-.66,12.58.55,6.56.45,13.82.47,20.55.28,4.53.72,8.63.59,13.06-.26,4.08-1.08,8.19-.86,12.31.03,7.36-.17,14.9-2.84,21.92-2.76,8.1-8.01,15.09-14.82,20.07-5.34,2.79-11.84,4.08-17.74,5.37-6.53,1.07-13.15-.14-19.43-2.02-6.8-1.66-13.11-4.56-17.85-9.8-3.85-4.25-4.99-9.93-7.55-14.96-5.76-10.39-3.9-22.51-3.13-33.74-.82-11.69-.99-24.13-1.47-35.95-.34-7.44.78-15.53-2.36-22.64-1.38-3.09-3.57-5.84-5.75-8.42-1.86-2.16-4.57-3.59-5.85-5.97-.63-2.32,7.86-1.71,9.41-1.87,6.7-.11,13.96-.16,20.56.93,3.55.23,7.93.03,7.97,4.4-.78,9.43.36,19.26-.41,28.77-.61,4.2-.12,8.32.1,12.52-.54,10.47-.16,20.83-.22,31.25.19,8.44-1.48,17.66,1.14,25.99,1.31,5.75,4.57,10.8,10.7,12.14,4.32,1.09,9.38,2.31,13.66.42,7.76-4.05,11.63-13.24,13.36-21.43,1.32-6.35-.63-12.52-.36-18.87,1.31-15.61-.23-30.93-1.52-46.48-.6-9.78-.91-16.26-8.13-23.69-1.61-1.68-5.07-4.3-5.52-5.43-.91-2.77,12.4-1.69,14.55-2.19,5.11-.15,10.31.27,15.39.99,2.83.07,6.06.45,8.39,2.09l.1.08Z" style="fill: #ec2b8c; stroke: #ec2b8c; stroke-miterlimit: 10;"/>
  <path d="M479.62,105.15c1.39.4.36,4.33-.22,6.63-1.49,4.9-2.55,10.11-4.64,14.76-1.25,2.86-2.63,5.64-3.63,8.59-2.84,8.25-8.81,6.16-15.75,5.33-6.04-.14-11.18.1-17.05-.03-2.25.14-4.51.04-6.75.26-3.2.28-6.27.74-9.4.47-2.25-.18-4.7-.78-7.07-.82-5.72.06-11.57.24-17.25-.05-5.37-.25-1.68-3.06-.13-5.34,4.19-5.59,8.13-12.08,7.48-19.37-.33-3.44-1-6.63-.9-10.03.06-3.36,1.05-6.74,1-10.08.05-4.51-1.4-9-1.17-13.56.8-8.03.2-15.78.25-23.84-.27-4.24-1.1-8.82-1.11-13.18-.2-5.7,1.47-11.75,0-17.45-.88-3.29-2.92-6.12-5-8.72-1.3-1.66-3.11-3.28-3.86-5.2-.9-2.16,2.16-2.37,3.58-2.52,3.66-.37,7.48-.39,11.05-.64,7.09.08,16.33-2.67,16.19,8.05-.07,5.85-.28,11.76.51,17.6.18,1.59.28,2.96.36,4.52.3,4.5.07,9.13.05,13.68-.06,5.05.22,10.06.39,15.08.17,4.08-.21,8.39-.15,12.45.09,4.96.45,9.82.21,14.78.05,6.47-2.21,19.83,2.31,24.58,3.47,2.49,8.69.18,12.7.54,4.17.11,7.96,1.38,12.16.65,6.38-1.71,12.65-4.35,17.12-9.06,2.01-2.06,3.94-4.49,5.89-6.52,1.1-1.11,2.16-1.73,2.79-1.58h.06Z" style="fill: #ec2b8c; stroke: #ec2b8c; stroke-miterlimit: 10;"/>
  <path d="M495.96,160.48c-2.09-5.29-7.73-24.43-7.73-24.43-.84-6.56-1.64-15.45-1.62-26.15-.55-5.77.67-11.6.91-17.35.01-3.54.33-7.03.45-10.58-.04-4.58-.87-9.13-1.12-13.71-.06-2.91.16-5.77.51-8.63.94-7.04.17-13.75-.24-20.81-.1-11.04-4.36-9.26-13.47-9.17-2.9-.07-5.8-.32-8.7-.27-4.23,0-8.71,1.5-12.62,3.24-1.71.75-3.84,1.99-5.56,2.21-3.64.41-1.18-5.1-.58-6.97,1.74-4.93,4.17-10.07,7.13-14.25,2.48-3.47,7.23-3,11.01-2.47,3.09.36,5.99-.07,9.31-.04,3.54-.11,7.09-.33,10.64-.41,3.4-.13,6.85.49,10.17.47,3.88.2,7.48-.91,11.33-1.32,2.57-.16,5.18-.06,7.85,0,4.44.18,8.9.49,13.26.42,4.46-.1,9.51-.21,12.03,4,2.5,3.74,4.89,8.32,6.36,12.67.81,2.13,2.13,4.88,1.77,7.04l-.02.07c-.94,2.77-8.64-2.53-10.83-2.85-6.1-2.22-12.97-2.48-19.42-2.53-2.9.02-6.53.58-8.11,3.14-1.8,3.9.37,7.95.27,12.36.12,5.39-1.01,10.3-.53,15.81.29,5.6.75,11.37,1.11,16.84.18,4.59-1.59,9.15-1.34,13.69.37,4.05,1.11,7.63.99,12.02.28,5.99-.07,12.32.36,18.41-.13,3.96-.19,7.23-.49,11.07-.11,2.01-.36,6.47-.83,8.39-2.7,10.96-3.67,15.33-5.76,20.03-.04,0-.6,2.01-3.06,2.31-2.18.26-3.4-2.17-3.43-2.24Z" style="fill: #ec2b8c; stroke: #ec2b8c; stroke-miterlimit: 10;"/>
  <path d="M576.39,113.99c.52,4.9-.16,9.62.14,14.59-.18,3.73.6,8.41-1.74,11.46-1.67,1.92-4.09.94-6.2.55-1.98-.07-5.77-.1-8.43-.12-3.07-.14-15.78,1.43-16.69-1.79-.32-2.32,1.97-4.69,3.34-6.45,2.32-2.79,3.81-5.5,4.61-8.94.79-5.29.19-10.74.13-16.09-.03-6.66.02-13.39-.15-20,.06-6.21,1.02-11.82.47-17.92-.4-7.5-.23-15.96.48-23.4.46-4.64-.46-9.24-.59-13.86-.41-4.49.01-9.31-2.72-13.15-3.1-4.65-10.15-7.93.68-7.91,2.91-.06,5.89-.02,8.82-.13,4.68.04,11.84-1.35,15.57,1.64,1.48,1.7,1.15,4.3,1.22,6.45.01,3.6.26,7.41-.03,11.06-.44,6.55.61,12.66.86,19.21.08,3.45.05,6.79.12,10.23-.03,4.32-.91,8.13-.74,12.21-.05,2.84.73,6.32.68,9.48-.53,10.78-.86,22.01.18,32.73v.16Z" style="fill: #ec2b8c; stroke: #ec2b8c; stroke-miterlimit: 10;"/>
  <path d="M671.54,11.8c1.46,2.17-5.25,6.6-6.42,9.1-3.2,5.02-3.81,10.99-6.02,16.66-2.43,7.22-2.82,14.61-4.88,22.01-2.78,14.92-5.9,29.9-10.21,44.46-1.17,6.06-.54,12.24-3,18.01-1.17,3.57-1.59,7.45-2.23,11.16-.35,2.3-.81,4.83-2.31,6.5-4.43,4.57-11.6,2.74-17.3,3.75-3.3.34-6.43.55-9.72.43-1.76-.01-4.32-.54-5.52-1.48-.18-.19-.23-.38-.14-.63.39-1.14,4.02-4.21,4.88-6.46.95-2.05,1.33-4.31,1.42-6.52.13-3.67-.9-7.13-1.38-10.87-.53-3.7-.61-7.49-1.27-11.17-1.54-8.83-6.17-17.74-7.29-26.71-.56-5.51-2.86-10.32-3.98-15.68-.6-8.34-3-16.42-5.04-24.54-2.3-7.01-5.38-13.64-9.47-19.79-1.74-2.71-5.42-4.48-6.37-7.14-.04-1.39,1.81-1.24,4.37-1.74,6.49-1.02,12.47-.37,19.06-.16,10.1-.52,8.92,7.77,11.65,14.87,1.89,4.96,2.47,10.2,3.52,15.53.56,2.31,1.24,4.45,1.64,6.82,1.17,5.47,1.6,10.34,3.15,15.89,1.17,5.47,3.16,10.82,4.55,16.23.76,3.16,1.77,10.98,3.94,3.96,1.69-6.24,2.67-12.94,4.16-19.19,1.32-7.7,3.89-15.28,5.24-23.01,1.44-7.16,1.88-14.04,3.79-21.11.76-2.76,1.4-6.35,3.52-8.2,3.63-2.74,9.37-1.37,13.79-1.87,2.36-.14,4.71-.23,7.07-.24,2.95.07,5.42-.13,6.73,1.05l.05.06Z" style="fill: #ec2b8c; stroke: #ec2b8c; stroke-miterlimit: 10;"/>
  <path d="M843.37,120.06c-.23-3.61.46-7.49.35-11.17-.02-2.99-.41-5.87-.31-8.78,1.06-10.81,1.35-21.71,1.62-32.63.13-5.07.39-10.03.14-15.14-.54-6.46-.05-12.88-.88-19.28-.68-4.77-3.12-9.22-7.01-12.04-3.32-2.65-18.43-9.03-5.52-9.26,6.26.21,12.4.86,18.63-.07,5.78-.62,11.77.28,17.57-.09,4.7-.22,9.23.54,13.79,1.15,5.46.15,11.41-.68,16.84-1.51,5.96-1.43,11.59-3.17,17.42-4.23,13.11-2.38,11.02-2.28,5.53,8.21l-.08.16c-1.49,2.94-3.04,5.96-4.87,8.92-2.83,5.08-5.97,8.51-11.62,8.48-6.14-.11-11.9-1.39-18.22-1.64-3.7-.24-7.45-.13-11.14-.21-9.93-.6-7.92,5.8-8.12,12.75-.09,6.24-3.63,19.11,3.51,22.14,2.23.8,4.91.77,7.3.62,3.86-.27,8.02-.16,11.67-1.42,4.15-1.11,6.16-1.42,9.63-3.7,5.86-2.79.82,7.23.68,9.12-.91,2.83-1.3,5.81-2.46,8.54-3.2,7.42-13.9,4.66-20.33,5.22-1.42-.02-2.76-.1-4.12-.02-8.31.09-7.12,10.5-6.86,16.36.65,6.05-.1,12.5.5,18.55.28,4.26,3.43,7.08,7.72,7.01,5.2.21,11.45-.14,17.05-.35,10.38-.05,18.87-7.28,24.69-15.25,2.87-3.73,5.16-4.37,4.64,1.27-.4,2.77-1.48,5.59-2.53,8.21-2.31,5.38-4.03,11.04-6.07,16.58-1.22,3.59-3.6,7.22-7.47,7.96-5.27,1.01-10.77-.08-16.08.1-11.57-.15-23.16-1.08-34.7.17-6.58.77-5.25-.32-12.15.26-2.33.19-5.08.21-7.25-.29-.38-.14-.66-.17-.89-.49-.14-.27.07-.57.59-.95,1.1-.8,5.31-6.83,6.03-8.1" style="fill: #ec2b8c; stroke: #ec2b8c; stroke-miterlimit: 10;"/>
  <path d="M1600.94,158.4c3.83,9.62-19.38-6.85-21.58-7.84-3.1-1.84-6.08-3.87-9.25-5.62-4.39-2.96-9.68-4.09-13.05-8-4.97-7.36-7.2-16.21-10.28-24.73-1.51-4.5-3.66-8.16-5.78-12.29-1.51-3.47-2.4-7.03-3.96-10.09-2.59-5.3-10.78-6.36-14.86-2.24-2.74,3.13-1.95,7.71-1.89,12.53.18,3.82.22,7.67.03,11.46-.23,6.42.41,16.88.7,23.25.58,4.92.88,8.54-5.21,8.58-7.05.42-14.05.08-21.05.05-1.91-.05-9.57-3.76-7.88-6.81.82-1.18,3.66.18,5.91-1.54,7.92-5.39,4.97-17.98,4.9-26.14.01-3.91.48-7.54.66-11.33.17-6.93-.76-13.71-.63-20.69.04-10.36.15-20.85-.71-31.22-.07-2.76-.27-5.62-.37-8.35-.25-4.49.19-9.08-.96-13.32-.95-2.98-3.07-5.42-5.32-7.67-2.89-3.05-9.42-7.03-1.07-7.96,4.79-.85,9.69-.82,14.54-.31,5.92.57,11.84-.19,17.69-.31,6.06.13,11.56.86,17.67.57,1.9-.1,3.83-.09,5.7.14,6.82.55,12.06,4.92,17.14,9.11,8.94,7.01,13.96,18.8,12.57,30.13-.57,3.67-1.79,7.2-2.89,10.72-1.6,5.64-2.99,11.37-7.47,15.44-.91.87-1.9,1.67-2.96,2.45-7.6,4.92-6.63,9.58-2.42,16.37,2.91,5.08,5.94,10,8.58,15.11,2.76,6.46,5.82,12.58,9.87,18.28,3.87,5.58,8.27,10.79,11.52,16.77,3.33,4.94,9.53,9.71,12.06,15.39l.06.13ZM1551.55,55.99c4.19-12.57.62-28.72-15.09-29.02-3.52-.13-6.99-.23-10.53-.12-4.04.14-6.99,1.24-6.86,5.53.43,9.44.23,19.34.84,28.84.05,1.6.37,3.3,1.26,4.49,2.19,2.73,6.54,2.05,9.73,2.06,3.56-.23,6.29-.1,9.07-.83,5.31-1.41,9.63-5.59,11.53-10.78l.06-.17Z" style="fill: #ec2b8c; stroke: #ec2b8c; stroke-miterlimit: 10;"/>
  <path d="M1020.18,31.04c-.94,2.77-8.64-2.53-10.83-2.85-6.1-2.22-12.97-2.48-19.42-2.53-2.9.02-6.53.58-8.11,3.14-1.8,3.9.37,7.95.27,12.36.12,5.39-1.01,10.3-.53,15.81.29,5.6.75,11.37,1.11,16.84.18,4.59-1.59,9.15-1.34,13.69.37,4.05,1.11,7.63.99,12.02.28,5.99-.07,12.32.36,18.41-.13,3.96-.19,7.23-.49,11.07-.11,2.01.22,4.38-.31,6.28-1.67,6.71-9.14,7.51-13.55,12.09-4.58,4.03-8.28,8.95-11.8,13.87-.71.98-1.65,2.07-2.5,2.76-1,.82-1.74,1.08-2.05.64-.64-1.58,1.24-5.09,1.83-7.02,1.12-2.86,1.94-5.85,2.86-8.67,1.8-5.51,4.41-10.2,4.72-15.88.09-8.51.13-17.77-1.62-26.15-.55-5.77.67-11.6.91-17.35.01-3.54.33-7.03.45-10.58-.04-4.58-.87-9.13-1.12-13.71-.06-2.91.16-5.77.51-8.63.94-7.04.17-13.75-.24-20.81-.1-11.04-4.36-9.26-13.46-9.17-2.9-.07-5.8-.32-8.7-.27-4.23,0-8.71,1.5-12.62,3.24-1.71.75-3.84,1.99-5.56,2.21-3.64.41-1.18-5.1-.58-6.97,1.74-4.93,4.17-10.07,7.13-14.25,2.48-3.47,7.23-3,11.01-2.47,3.09.36,5.99-.07,9.31-.04,3.54-.11,7.09-.33,10.64-.41,3.4-.13,6.85.49,10.17.47,3.88.2,7.48-.91,11.33-1.32,2.57-.16,5.18-.06,7.85,0,4.44.18,8.9.49,13.26.42,4.46-.1,9.51-.21,12.03,4,2.5,3.74,4.9,8.32,6.36,12.67.81,2.13,2.13,4.88,1.77,7.04l-.02.07Z" style="fill: #ec2b8c; stroke: #ec2b8c; stroke-miterlimit: 10;"/>
  <path d="M1277.71,9.39c3.82,2.3-6,7.5-7.26,10.12-3.63,4.27-2.5,9.84-2.33,14.98-.21,5.58-1.18,10.85-.78,16.72.14,2.47,0,4.99-.15,7.45-.64,7.88,1.46,16.52,1.19,24.34-.28,3.88-.72,7.82-1.64,11.6-.94,4.13-.51,8.38.37,12.45.64,4.1,1.08,8.3,1.58,12.55.32,2.26,1.19,4.82.85,6.77-.3,2.05-1.16,3.74-1.77,5.76-.95,2.27-1.16,5.4-2.97,7.08-1.99,1.61-4.91,1.27-7.3,1.23-1.7-.01-3.14.91-5.42.16-7.52-1.82-6.6-11.24-10.35-16.24-.95-1.2-1.91-2.26-2.66-3.59-5.14-9.55-10.93-19.83-16.02-29.45-3.07-6.42-5.74-11.8-8.99-18.16-.96-1.95-1.55-4.46-3.45-5.55-2.28-.62-1.11,5.63-.84,7.06,1.04,6.18-.03,12.66,1.2,18.82,1.44,6.94-.9,13.81-.37,20.79.46,5.45-.2,10.72.51,16.22.42,3.24.83,6.65-.05,9.82-.61,2.74-2.46,4.9-4.23,7.01-2.15,2.65-4.6,5.06-6.79,7.66-4.03,5.7-8.77,10.59-12.71,16.59-7.01,9.82-3.66-.63-3.49-5.78.35-5.38,1.36-10.58,1.84-15.91.15-2.98.08-5.77.33-8.69.73-7.37,1.69-14.77,2.68-22.12.54-5.94.05-12.12.6-17.92-.4-5.98-.7-12.29-.62-18.43.07-5.62-.11-11.28-1.23-16.77-.68-4.94.58-10.03.54-15.07.15-5.76-.12-11.35-.5-17.13-.16-3.2-.85-6.35-2.51-9.14-1.65-4.06-7.16-8.07-9.04-11.15-.95-3.12,7.56-2.19,9.79-2.39,2.95-.06,5.86-.07,8.86-.1,4.89-.19,10.93-1.08,14.2,3.14,3.64,4.7,5.02,9.7,7.22,15.38,2.09,4.63,4.8,8.87,7.52,13.1,2.79,5.15,5.15,10.82,7.36,16.16,1.42,3.95,2.38,7.39,5.05,10.51,1.36,1.7,2.84,3.52,3.94,5.75.79,1.52,1.42,3.38,2.39,4.71,4.39,4.89,2.2-10.22,2.17-12.08-.59-11.31-.98-22.5-1.15-33.85-.06-2.83-.19-5.56-.08-8.23.12-3.03.39-6.13-.07-9.12-1.47-9.09,11.01-6.3,16.74-6.61,5.25.54,13.28-1.92,17.73-.49l.09.04Z" style="fill: #ec2b8c; stroke: #ec2b8c; stroke-miterlimit: 10;"/>
  <path d="M1311.13,113.99c.52,4.9-.16,9.62.14,14.59-.18,3.73,4.6,7.41,2.26,10.46-1.67,1.92-8.09,1.94-10.2,1.55-1.98-.07-5.77-.1-8.43-.12-3.07-.14-12.78,1.43-13.69-1.79-.32-2.32,1.97-4.69,3.34-6.45,2.32-2.79.81-5.5,1.61-8.94.79-5.29.19-10.74.13-16.09-.03-6.66.02-13.39-.15-20,.06-6.21,1.02-11.82.47-17.92-.4-7.5-.23-15.96.48-23.4.46-4.64-.46-9.24-.59-13.86q-.41-4.49-.72-11.15c-.26-5.59-9.15-9.93,1.68-9.91,2.91-.06,2.89-.02,5.82-.13,4.68.04,11.84-1.35,15.57,1.64,1.48,1.7,1.15,4.3,1.22,6.45.01,3.6.26,7.41-.03,11.06-.44,6.55.61,12.66.86,19.21.08,3.45.05,6.79.12,10.23-.03,4.32-.91,8.13-.74,12.21-.05,2.84.73,6.32.68,9.48-.53,10.78-.86,22.01.18,32.73v.16Z" style="fill: #ec2b8c; stroke: #ec2b8c; stroke-miterlimit: 10;"/>
  <path d="M1361.71,146.93,1351.21,135.14q-1.48-3.35-3.43-9.69c-2.97-9.65-4.29-13.54-5.18-18.68-.81-4.67-2.44-9.35-4.09-14.04-2.66-6.84-2.93-13.93-5.03-20.76-.75-2.52-1.67-4.92-2.16-7.59-.36-2.36-.37-4.81-.87-7.25-2.16-9.72-4.14-19.74-8.83-28.63-1.55-3.14-3.14-6.37-5.39-9.18-1.37-1.7-3.3-3.2-4.51-4.44-.87-.95-1.42-1.52-1.25-2.36.21-.79,1.95-1,4.33-1.36,2.98-.46,5.89-.58,8.84-.55,3.4-.12,6.61.4,10.22.39,2.46,0,5.16.26,6.99,2.02,2.64,2.83,2.72,7.4,4.07,11.02,2.56,6.44,3.06,13.39,4.83,20.16,1.8,6.71,2.17,13.08,4.07,19.9,1.61,6.95,4.31,14.48,5.76,21.34,2.42,8.29,5.63-16.69,6.42-18.07,1.39-8.12,3.92-16.06,5.5-24.17,1.59-7.5,2.01-14.8,4.01-22.22.76-2.76,1.4-6.35,3.52-8.2,3.45-2.65,8.97-1.42,13.21-1.84,2.55-.14,5.09-.26,7.65-.27,2.95.07,5.42-.13,6.73,1.05l.05.06c1.46,2.17-5.25,6.6-6.42,9.1-3.2,5.02-3.81,10.99-6.02,16.66-2.43,7.22-2.82,14.61-4.88,22.01-2.78,14.92-4.9,29.9-9.21,44.46-1.17,6.06-2.49,11.19-4,17.01-1.59,6.12-1.85,5.94-3.41,12.83,0,0-.8,3.53-2.52,8.61-.23.68-.6,2.78-2.18,4.86-1.89,2.49-3.82,4.5-5.08,4.64-.34.04-1.3.27-4.42-3.24-1.78-2.01-3.18-5.23-4.51-7.45-1.99-3.32-2.01-4.28-2.84-6.15Z" style="fill: #ec2b8c; stroke: #ec2b8c; stroke-miterlimit: 10;"/>
  <path d="M1489.45,13.33c-1.49,2.94-.04,5.96-1.87,8.92-2.83,5.08-5.97,8.51-11.62,8.48-6.14-.11-11.9-1.39-18.22-1.64-3.7-.24-7.45-.13-11.14-.21-9.93-.6-7.92,5.8-8.12,12.75-.09,6.24-3.63,19.11,3.51,22.14,2.23.8,4.91.77,7.3.62,3.86-.27,8.02-.16,11.67-1.42,4.15-1.11,4.16-1.42,7.63-3.7,5.86-2.79,1.82,7.23,1.68,9.12-.91,2.83-1.3,5.81-2.46,8.54-3.2,7.42-12.9,4.66-19.33,5.22-1.42-.02-2.76-.1-4.12-.02-8.3.09-7.12,10.5-6.86,16.36.65,6.05-.1,12.5.5,18.55.28,4.26,3.43,7.08,7.72,7.01,5.2.21,11.45-.14,17.05-.35,10.38-.05,18.87-7.28,24.69-15.25,2.87-3.73,5.16-4.37,4.64,1.27-.4,2.77-1.48,5.59-2.53,8.21-2.31,5.38-4.03,11.04-6.07,16.58-1.22,3.59-3.6,7.22-7.47,7.96-5.27,1.01-10.77-.08-16.08.1-11.57-.15-23.16-1.08-34.7.17-6.58.77-12.25-.32-19.15.26-2.33.19-5.08.21-7.25-.29-.38-.14-.66-.17-.89-.49-.14-.27.07-.57.59-.95,1.1-.8,2.65-1.46,3.97-2.09,4.51-2.03,9.18-4.82,11.23-9.41,1.68-3.72.76-7.88.58-11.81-.23-3.61.46-7.49.35-11.17-.02-2.99-.41-5.87-.31-8.78,1.06-10.81,1.35-21.71,1.62-32.63.13-5.07.39-10.03.14-15.14-.54-6.46-.05-12.88-.88-19.28-.68-4.77-3.12-9.22-7.01-12.04-3.32-2.65-18.43-9.03-5.52-9.26,6.26.21,12.4.86,18.63-.07,5.78-.62,11.77.28,17.57-.09,4.7-.22,9.23.54,13.79,1.15,5.46.15,10.41.32,15.84-.51,5.96-1.43,3.46-1.42,18.42-1.23" style="fill: #ec2b8c; stroke: #ec2b8c; stroke-miterlimit: 10;"/>
  <path d="M855.27,144.68c-9.17,1.34-12.6,1.33-15.01,1.48-5.18.33-11.85-.27-15.02-2.01-4.41-2.98-4.85-2.75-8.27-6.69-4.97-7.36-7.2-16.21-10.28-24.73-1.51-4.5-3.66-8.16-5.78-12.29-1.51-3.47-2.4-7.03-3.96-10.09-2.59-5.3-10.78-6.36-14.86-2.24-2.74,3.13-1.95,7.71-1.89,12.53.18,3.82.22,7.67.03,11.46-.23,6.42.41,12.88.7,19.25.59,4.88.84,8.56-5.21,8.58-7.05.42-14.05-.92-21.05-.95-1.91-.05-9.57.24-7.88-2.81.82-1.18,3.66-2.82,5.91-4.54,7.89-5.32,4.99-14.04,4.9-22.14.01-3.91.48-7.54.66-11.33.17-6.93-.76-13.71-.63-20.69-.01-9.92.24-19.99-.65-29.91-.11-3.2-.29-6.48-.42-9.66-.25-4.49.19-9.08-.96-13.32-.95-2.98-3.07-5.42-5.32-7.67-2.89-3.05-9.42-7.03-1.07-7.96,4.79-.85,9.69-.82,14.54-.31,5.92.57,11.84-.19,17.69-.31,6.06.13,11.56.86,17.67.57,1.9-.1,3.83-.09,5.7.14,6.82.55,12.06,4.92,17.14,9.11,8.94,7.01,13.96,18.8,12.57,30.13-.57,3.67-1.79,7.2-2.89,10.72-1.6,5.64-2.99,11.37-7.47,15.44-.91.87-1.9,1.67-2.96,2.45-7.6,4.92-6.63,9.58-2.42,16.37,2.91,5.08,5.94,10,8.58,15.11,2.76,6.46,5.82,12.58,9.87,18.28,3.87,5.58,7.24,7.7,13.29,10.81,7.6,3.91,8.91,3.02,8.05,5.74l-3.28,1.5ZM811.46,56.51c4.19-12.57.62-28.72-15.09-29.02-3.52-.13-6.99-.23-10.53-.12-4.04.14-6.99,1.24-6.86,5.53.43,9.44.23,19.34.84,28.84.05,1.6.37,3.3,1.26,4.49,2.19,2.73,6.54,2.05,9.73,2.06,3.56-.23,6.29-.1,9.07-.83,5.31-1.41,9.63-5.59,11.53-10.78l.06-.17Z" style="fill: #ec2b8c; stroke: #ec2b8c; stroke-miterlimit: 10;"/>
  <path d="M1660.25,97.15c.8,6.62-.72,13.27-3.47,19.37-1.83,5.23-4.67,9.98-8.25,13.72-3.46,4.2-7.09,8.67-12.64,10.04-2.56.74-5.13,1.41-7.74,2.01-4.37,1.27-8.28,2.51-13,2.53-8.7-.26-18.22-2.78-24.36-9.28-3.77-3.89-7.3-7.83-10.53-12.33-2.02-2.82-4.18-5.81-4.23-8.61-.17-4.17,4.13-6.36,6.99-8.7,4.42-3.14,7.37-9.27,12.31-11.81,5.46-2.37,2.9,5.37,2.63,8.43-.04,3.12-.14,6.33.43,9.41,1.72,6.63,8.43,11.14,14.95,11.75,4.83-.16,10.05.15,14.41-2.24,7.39-4.83,13.43-20.79,9.8-29.25-2.26-6.45-8.91-8.93-14.73-11.13-6.87-2.61-14.11-6.08-21.23-8.33-12.83-4.03-20.52-17.96-19.41-31.07.28-7.77,3.84-15.22,9.1-20.88,4.13-4.47,9.96-6.98,15.43-9.06,4.76-1.9,9.74-3.16,14.88-2.93,4.16.04,8.23-.5,11.84,1.6,4.49,3.15,9.54,5.64,13.99,8.83,3.74,3.15,7.27,6.88,8.95,11.48.88,4.38-2.68,7.54-5.29,11.64-1.44,1.73-10.56,17.77-12.38,11.17-.52-2.9-.13-6.52-1.02-9.53-1.76-5.21-3.45-11.19-8.47-14.07-4.07-2.16-8.75-3.64-13.28-2.8-12.65,3.28-16.98,18.88-6.95,27.73,4.13,3.57,9.78,4.63,14.8,6.48,7.15,2.55,13.82,5.09,20.33,8.37,8.99,4.84,15.4,17.23,16.14,27.27v.18Z" style="fill: #ec2b8c; stroke: #ec2b8c; stroke-miterlimit: 10;"/>
  <path d="M1177.74,10.68c-6.7-.11-13.96-1.16-20.56-.07-3.55.23-7.93,1.03-7.97,5.4.77,9.26-.32,18.91.37,28.26.03.34.07.69.11,1.03.46,3.71.1,7.35-.12,11.05-.04.63-.04,1.26,0,1.89.41,9.02-.07,18,.28,26.99.29,7.31,1.62,18.67-.51,27.82-1.55,6.68-6.54,12.14-13.13,14.01-.04.01-.08.02-.13.04-4.5,1.26-9.33.67-13.66-.42-6.12-1.34-9.39-6.39-10.7-12.14-2.62-8.33-.95-17.55-1.14-25.99.07-10.11-.3-20.15.18-30.29.03-.64.03-1.29,0-1.93-.22-3.7-.58-7.33-.12-11.04.04-.34.08-.69.11-1.03.68-9.35-.4-18.99.37-28.26-.04-4.38-4.42-5.17-7.97-5.4-6.6-1.08-13.85-.04-20.56.07-1.55.15-10.04-.46-9.41,1.87,1.29,2.38,3.99,3.81,5.85,5.97,2.18,2.58,4.37,5.33,5.75,8.42,3.14,7.11,2.02,15.2,2.36,22.64.46,11.38.64,23.33,1.38,34.64.06.87.06,1.74,0,2.62-.81,10.86-2.31,22.45,3.23,32.43,2.56,5.04,3.7,10.71,7.55,14.96,4.75,5.24,11.06,8.14,17.85,9.8,6.05,1.81,12.41,3,18.7,2.13.49-.07.96-.16,1.44-.27,4.82-1.05,10-2.14,14.58-4.07,1.64-.69,3.16-1.63,4.53-2.77,5.8-4.83,10.26-11.19,12.74-18.44.85-2.24,1.45-4.53,1.87-6.85.09-.48.19-.95.32-1.41,1.54-5.88,1.45-12.1,1.04-18.25-.08-1.15-.06-2.3.07-3.45.16-1.43.32-2.86.41-4.28.11-3.75-.18-7.27-.44-11.01-.05-.69-.06-1.39-.03-2.08.32-7.91.51-15.94.82-23.71.34-7.44-.78-15.53,2.36-22.64,1.38-3.09,3.57-5.84,5.75-8.42,1.86-2.16,4.57-3.59,5.85-5.97.63-2.32-7.86-1.71-9.41-1.87Z" style="fill: #ec2b8c; stroke: #ec2b8c; stroke-miterlimit: 10;"/>
  <path d="M748.82,13.7c-1.28,5.22-2.87,5.79-4.7,8.75-2.83,5.08-5.31,5.15-10.96,5.12-6.14-.11-8.71.27-15.02.02-3.7-.24-6.66,1.14-10.35,1.06-9.93-.6-7.92,5.8-8.12,12.75-.09,6.24-3.63,19.11,3.51,22.14,2.23.8,4.91.77,7.3.62,3.86-.27,6.02-.16,9.67-1.42,4.15-1.11,7.16-4.42,10.63-6.7,5.86-2.79-1.18,10.23-1.32,12.12-.91,2.83-1.3,5.81-2.46,8.54-3.2,7.42-10.9,4.66-17.33,5.22-1.42-.02-2.76-.1-4.12-.02-8.31.09-7.12,10.5-6.86,16.36.65,6.05-.1,12.5.5,18.55.28,4.26,3.43,7.08,7.72,7.01,5.2.21,11.45-.14,17.05-.35,10.38-.05,16.87-3.28,22.69-11.25,2.87-3.73,5.16-4.37,4.64,1.27-.4,2.77-1.48,5.59-2.53,8.21-2.31,5.38-2.03,7.04-4.07,12.58-1.22,3.59-3.6,7.22-7.47,7.96-5.27,1.01-10.77-.08-16.08.1-11.57-.15-23.16-1.08-34.7.17-6.58.77-9.25-.32-16.15.26-2.33.19-5.08.21-7.25-.29-.38-.14-.66-.17-.89-.49-.14-.27.07-.57.59-.95,1.1-.8,2.65-1.46,3.97-2.09,4.51-2.03,6.18-4.82,8.23-9.41,1.68-3.72.76-7.88.58-11.81-.23-3.61.46-7.49.35-11.17-.02-2.99-.41-5.87-.31-8.78,1.06-10.81,1.35-21.71,1.62-32.63.13-5.07.39-10.03.14-15.14-.54-6.46-.05-12.88-.88-19.28-.68-4.77-3.12-9.22-7.01-12.04-3.32-2.65-18.43-9.03-5.52-9.26,6.26.21,12.4.86,18.63-.07,5.78-.62,11.77.28,17.57-.09,4.7-.22,9.23.54,13.79,1.15,5.46.15,11.41-.68,16.84-1.51,5.96-1.43,12.46-1.35,16.93,1.85" style="fill: #ec2b8c; stroke: #ec2b8c; stroke-miterlimit: 10;"/>
</svg>