<?xml version="1.0" encoding="UTF-8"?>
<svg id="starlines" xmlns="http://www.w3.org/2000/svg" width="600" height="600" viewBox="0 0 600 600">
  <path d="M122.86,363.13c112.21-.35,239.73-1.49,351.79-1.24,0,0-1.34,4.06-1.34,4.06-17.73-13.07-53.12-39.41-70.77-52.56-35.17-26.33-105.92-79.39-141.08-105.73-23.54-17.59-47.13-35.1-70.75-52.58,0,0,1.17-.84,1.17-.84,23.95,73.77,57.21,174.46,81.58,248.08,0,0,27.16,82.7,27.16,82.7h-4.29s52.96-165.43,52.96-165.43c13.23-41.19,40.11-124.13,53.49-165.26,0,0,3.86,2.78,3.86,2.78-90.14,65.93-193.42,140.18-283.8,206.02h0ZM122.38,363.29c89.87-66.93,191.34-143.5,281.3-210.2,0,0,6.25-4.65,6.25-4.65-14.36,44.92-41.04,127.91-55.58,172.79,0,0-53.73,165.19-53.73,165.19,0,0-2.17,6.66-2.17,6.66,0,0-2.13-6.65-2.13-6.65-33.3-103.89-72.31-227.91-105.89-331.71,0,0-.72-2.24-.72-2.24,0,0,1.89,1.4,1.89,1.4,65.39,48.4,147.33,107.92,213.39,156.19,20.37,14.96,56.23,41.33,76.52,56.37,0,0-6.89-.04-6.89-.04-112.31-.33-239.89-2.15-352.26-3.1h0Z"/>
  <path d="M505.3,300c.58-78.56-47.05-152.52-117.95-185.79C250.08,49.62,95.14,148.19,95.82,300c1.45,149.7,154.96,249.69,291.46,185.62,70.97-33.1,118.54-107.11,118.02-185.62h0ZM505.8,300c.96,113.5-91.03,211.18-205.8,210.53-82.96,1.03-161.97-53.51-191.91-130.61-17.89-44.33-19.74-94.62-5.79-140.23,34.82-116.57,164.44-182.02,277.61-133.63,76.44,31.8,126.64,111.7,125.9,193.94h0Z"/>
  <path d="M550.33,300c.7-97.99-59.68-190.1-149.21-229.45C234.26-3.37,50.13,117.73,50.79,300c1.44,180.18,184.21,302.65,350.25,229.27,89.62-39.16,149.93-131.33,149.29-229.27h0ZM550.83,300c1.33,137.93-111.5,257.06-250.83,256.06-100.93,1.24-197.02-65.04-233.55-158.8-21.01-52-24.06-110.84-8.98-164.75,15.75-57.94,52.71-109.72,102.19-143.7,169.99-115.62,390.84,8.1,391.17,211.19h0Z"/>
  <path d="M149.07,115.16c.73-.15,5.64-1.05,9.65,2.19,3.68,2.98,5.11,8.23,3.51,13.16" style="fill: none; stroke: #000; stroke-miterlimit: 10; stroke-width: 3px;"/>
  <path d="M164.86,99.81c-.28,1.56-.91,6.26,1.75,10.96,4.44,7.85,13.87,8.31,14.47,8.33" style="fill: none; stroke: #000; stroke-miterlimit: 10; stroke-width: 3px;"/>
  <path d="M151.26,130.5c1.04-4.23,2.71-7.29,3.95-9.21,6.13-9.46,15.81-12.41,18.42-13.16,3.57-1.03,6.66-1.28,8.77-1.32" style="fill: none; stroke: #000; stroke-miterlimit: 10; stroke-width: 3px;"/>
  <path d="M82.61,375.47c.43.46,3.56,3.87,2.79,8.36-.61,3.58-3.63,7.47-6.77,7.17-2.47-.24-4.84-3.08-5.18-5.97-.45-3.88,2.96-6.12,11.15-16.33,5.73-7.13,6.75-9.39,5.97-10.98-.81-1.64-3.38-2.23-5.18-1.77-3.15.8-7.59,7.26-6.37,12.74" style="fill: none; stroke: #000; stroke-miterlimit: 10; stroke-width: 3px;"/>
  <path d="M428.87,117.63c3.91-2.55,6.16-6.57,5.78-10.52-.49-5.03-5.2-9.29-6.99-8.55-1.73.72-1.65,6.5.31,10.94,1.82,4.13,5.05,6.6,10.12,10.4,6.33,4.73,8.99,5.2,9.04,7.22.09,3.76-8.99,8.54-11.92,6.27-2.09-1.62-1.75-7.35,5.03-22.15" style="fill: none; stroke: #000; stroke-miterlimit: 10; stroke-width: 3px;"/>
  <path d="M277.82,540.21c.42-1.78,8.37-12.62,13.8-13.65,3.01-.57,6.42,1.54,12.53,6.54,5.36,4.38,7.24,6.8,9.8,7.08,3.07.33,9.29.01,15.79-11.25" style="fill: none; stroke: #000; stroke-miterlimit: 10; stroke-width: 3px;"/>
  <circle cx="314.67" cy="528.92" r="5.17" style="fill: none; stroke: #000; stroke-miterlimit: 10; stroke-width: 3px;"/>
  <circle cx="293.25" cy="537.45" r="5.17" style="fill: none; stroke: #000; stroke-miterlimit: 10; stroke-width: 3px;"/>
  <path d="M501.34,371.59c6.65-1.53,13.54,1.24,17.15,6.86,3.85,6,3.18,14.01-1.71,19.44" style="fill: none; stroke: #000; stroke-miterlimit: 10; stroke-width: 3px;"/>
  <path d="M506.49,380.74c5.8,5.17,14.57,4.7,19.44-.57,4.33-4.69,4.71-12.24.57-17.72" style="fill: none; stroke: #000; stroke-miterlimit: 10; stroke-width: 3px;"/>
</svg>